<svg width="153" height="26" viewBox="0 0 153 26" fill="none" xmlns="http://www.w3.org/2000/svg">
<path fill-rule="evenodd" clip-rule="evenodd" d="M111.335 11.8177V20.2928H115.001V11.7319C115.001 10.837 115.348 10.0774 115.932 9.53637C116.523 8.9927 117.354 8.67794 118.316 8.67794C119.438 8.67794 120.178 9.01091 120.663 9.47134C121.414 10.1841 121.536 11.1856 121.536 11.7319V16.9553C121.536 18.7684 123.076 20.2459 124.994 20.2928H125.199H125.202V11.8177C125.202 9.87194 124.542 8.22532 123.326 7.07554C122.151 5.96739 120.449 5.32227 118.316 5.32227C116.234 5.32227 114.508 6.00121 113.294 7.13017C112.044 8.29295 111.335 9.93957 111.335 11.8177Z" fill="#EC6707"/>
<path fill-rule="evenodd" clip-rule="evenodd" d="M76.5316 15.8081C76.5316 14.2604 75.8554 13.2927 74.7137 12.6424C73.5332 11.9712 71.8511 11.62 69.8891 11.3183C68.8831 11.17 68.0795 11.0296 67.5197 10.8241C66.8879 10.5925 66.547 10.2726 66.547 9.78353C66.547 9.40634 66.8186 9.00574 67.431 8.73C67.8883 8.5271 68.5423 8.38923 69.4263 8.38923C70.1828 8.38923 70.7953 8.5219 71.2636 8.74041C71.743 8.96412 72.0672 9.27888 72.239 9.64046H76.0827C75.7862 8.38403 75.0241 7.33831 73.9295 6.59694C72.76 5.80354 71.2082 5.35352 69.4263 5.35352C64.9508 5.35352 62.817 7.69729 62.817 9.95522C62.817 11.5394 63.7232 12.5045 64.9675 13.1236C66.2477 13.7609 67.8938 14.0393 69.3044 14.2422C70.726 14.4503 71.5823 14.6454 72.0922 14.9003C72.6686 15.189 72.8321 15.5402 72.8321 16.0423C72.8321 16.5495 72.4968 16.9345 71.9398 17.1946C71.3911 17.4496 70.6179 17.5796 69.7367 17.5796C69.0356 17.5796 68.1903 17.4288 67.4754 17.062C66.9322 16.7836 66.4667 16.383 66.1868 15.8316H62.418C62.7006 17.2753 63.5154 18.4537 64.7125 19.2835C66.0011 20.1757 67.7359 20.67 69.7339 20.67C71.7347 20.67 73.4445 20.1601 74.6472 19.2913C75.8333 18.4355 76.5316 17.2259 76.5316 15.8081Z" fill="#EC6707"/>
<path fill-rule="evenodd" clip-rule="evenodd" d="M10.2423 20.3006V16.9735H8.10018C6.85869 16.9735 5.75299 16.5391 4.9632 15.8133C4.17895 15.0928 3.70231 14.0861 3.70231 12.9311C3.70231 11.7553 4.18449 10.6888 4.96043 9.91357C5.73913 9.13838 6.81712 8.65714 8.00873 8.65714C9.20034 8.65714 10.2783 9.15399 11.057 9.95259C11.8357 10.7486 12.3152 11.8463 12.3152 13.0507V16.7758C12.3235 17.8111 12.6699 18.6253 13.3516 19.2835C14.0056 19.8974 14.945 20.2772 15.9814 20.2954V13.0481C15.9814 10.8839 15.1307 8.92508 13.6841 7.52298C12.2819 6.1677 10.3144 5.33008 8.00873 5.33008C5.69756 5.33008 3.72725 6.16249 2.32226 7.49696C0.856297 8.88346 0 10.8188 0 12.9311C0 14.9913 0.828585 16.846 2.20587 18.1805C3.56098 19.4916 5.44816 20.3006 7.60137 20.3006H10.2423Z" fill="#EC6707"/>
<path fill-rule="evenodd" clip-rule="evenodd" d="M153 17.3116C150.986 17.2179 150.085 15.7976 150.085 14.3799V9.00042H153V5.70458H150.085V0.00512695H146.419V14.2629C146.419 16.1176 147.101 17.7356 148.317 18.8776C149.451 19.9415 151.052 20.5944 153 20.6386V17.3116Z" fill="#EC6707"/>
<path d="M108.01 16.5884H104.033V20.2926H108.01V16.5884Z" fill="#EC6707"/>
<path fill-rule="evenodd" clip-rule="evenodd" d="M86.8408 11.8177V20.2928H90.5071V11.7319C90.5071 10.837 90.8535 10.0774 91.4382 9.53637C92.0285 8.9927 92.8598 8.67794 93.8214 8.67794C94.9438 8.67794 95.6255 9.07334 96.1104 9.53377C96.8614 10.2465 97.0443 10.9723 97.0443 11.7319V16.9553C97.0443 18.7684 98.5851 20.2459 100.503 20.2928H100.708H100.711V11.8177C100.711 9.87194 100.051 8.22532 98.8345 7.07554C97.6595 5.96739 95.958 5.32227 93.8242 5.32227C91.743 5.32227 90.0166 6.00121 88.8028 7.13017C87.5502 8.29295 86.8408 9.93957 86.8408 11.8177Z" fill="#EC6707"/>
<path d="M83.2552 5.70215H79.5889V20.2928H83.2552V5.70215Z" fill="#EC6707"/>
<path d="M59.9741 0H56.2773V20.2927H59.9741V0Z" fill="#EC6707"/>
<path fill-rule="evenodd" clip-rule="evenodd" d="M46.3125 14.2968H53.2488C53.2848 13.917 53.3042 13.5477 53.3042 13.1887C53.3042 10.8449 52.5227 8.98238 51.2646 7.66352C50.0092 6.34466 48.2745 5.56167 46.3679 5.37177C46.0658 5.34056 45.7555 5.32495 45.4396 5.32495C43.2337 5.32495 41.2329 6.19118 39.7836 7.58548C38.3342 8.98238 37.4336 10.9125 37.4336 13.043C37.4336 15.1423 38.3342 17.0516 39.7836 18.4355C41.2329 19.8168 43.2337 20.6726 45.4368 20.6726C47.3212 20.6726 48.9396 20.1836 50.206 19.3356C51.381 18.55 52.2539 17.4522 52.7555 16.1464H48.7594C48.413 16.56 47.9863 16.8747 47.5069 17.101C46.8584 17.408 46.1185 17.5511 45.373 17.5511C44.1509 17.5511 43.0369 17.0568 42.2361 16.2322C41.4574 15.431 40.9752 14.3176 40.9752 13.043C40.9752 11.7502 41.4601 10.6056 42.2444 9.77838C43.0452 8.93035 44.1565 8.4179 45.3758 8.4179C46.3485 8.4179 47.2574 8.68583 47.9918 9.18268C48.7068 9.66392 49.2582 10.3611 49.5464 11.2377L49.6324 11.4978H43.2337C43.2475 12.2106 43.5551 12.9207 44.0429 13.4124C44.5805 13.9509 45.3536 14.2396 46.2016 14.2942L46.3125 14.2968Z" fill="#EC6707"/>
<path fill-rule="evenodd" clip-rule="evenodd" d="M24.9377 20.2928H27.5786C29.7318 20.2928 31.6079 19.4863 32.9547 18.1779C34.3265 16.8434 35.1495 14.9861 35.1495 12.9233C35.1495 10.8084 34.3015 8.87044 32.8439 7.48395C31.4472 6.15208 29.4852 5.32227 27.1768 5.32227C24.8712 5.32227 22.9036 6.15988 21.5014 7.51516C20.0521 8.91726 19.2041 10.876 19.2041 13.0403V26H22.8704V13.0403C22.8704 11.8359 23.3526 10.7382 24.1285 9.94218C24.9072 9.14358 25.9852 8.64673 27.1768 8.64673C28.3684 8.64673 29.4436 9.12797 30.2251 9.90316C31.0038 10.6783 31.4832 11.7475 31.4832 12.9207C31.4832 14.0756 31.0066 15.0823 30.2223 15.8029C29.4298 16.5287 28.3269 16.9631 27.0854 16.9631H24.9432V20.2928H24.9377Z" fill="#EC6707"/>
<path fill-rule="evenodd" clip-rule="evenodd" d="M136.417 14.2968H143.353C143.392 13.917 143.409 13.5477 143.409 13.1887C143.409 10.8449 142.627 8.98238 141.369 7.66352C140.114 6.34466 138.379 5.56167 136.473 5.37177C136.171 5.34056 135.86 5.32495 135.547 5.32495C133.341 5.32495 131.34 6.19118 129.891 7.58548C128.442 8.98238 127.541 10.9125 127.541 13.043C127.541 15.1449 128.442 17.0516 129.891 18.4355C131.34 19.8168 133.341 20.6726 135.544 20.6726C137.429 20.6726 139.047 20.1836 140.313 19.3356C141.488 18.5474 142.361 17.4496 142.863 16.1464H138.867C138.523 16.56 138.094 16.8747 137.614 17.101C136.966 17.408 136.226 17.5511 135.48 17.5511C134.258 17.5511 133.144 17.0568 132.343 16.2322C131.565 15.431 131.083 14.3176 131.083 13.043C131.083 11.7502 131.57 10.6056 132.352 9.77838C133.153 8.93035 134.264 8.4179 135.483 8.4179C136.456 8.4179 137.365 8.68583 138.099 9.18268C138.814 9.66392 139.366 10.3637 139.654 11.2377L139.74 11.4978H133.341C133.363 12.2106 133.66 12.8999 134.145 13.3916C134.68 13.9301 135.447 14.237 136.306 14.2942L136.417 14.2968Z" fill="#EC6707"/>
<path fill-rule="evenodd" clip-rule="evenodd" d="M83.3381 0.421387H81.462C80.9466 0.421387 80.4783 0.619085 80.1374 0.939045C79.7965 1.25901 79.5859 1.69863 79.5859 2.18247V3.94355H81.462C81.9775 3.94355 82.4458 3.74585 82.7866 3.42589C83.1275 3.10593 83.3381 2.66631 83.3381 2.18247V0.421387Z" fill="#73B129"/>
</svg>
