<svg width="121" height="23" viewBox="0 0 121 23" fill="none" xmlns="http://www.w3.org/2000/svg">
<path d="M22.6383 22.9194C22.1171 22.9194 21.6475 22.8163 21.2293 22.6101C20.8169 22.3981 20.4933 22.1089 20.2585 21.7423C20.0237 21.37 19.9062 20.949 19.9062 20.4794C19.9062 20.0097 20.0237 19.5916 20.2585 19.225C20.4933 18.8527 20.8169 18.5635 21.2293 18.3573C21.6475 18.1511 22.1171 18.048 22.6383 18.048C23.1653 18.048 23.635 18.1511 24.0474 18.3573C24.4655 18.5635 24.7891 18.8527 25.0182 19.225C25.253 19.5916 25.3704 20.0097 25.3704 20.4794C25.3704 20.949 25.253 21.37 25.0182 21.7423C24.7891 22.1089 24.4655 22.3981 24.0474 22.6101C23.635 22.8163 23.1653 22.9194 22.6383 22.9194ZM22.6383 21.4073C22.8617 21.4073 23.045 21.3271 23.1882 21.1667C23.3314 21.0006 23.403 20.7715 23.403 20.4794C23.403 20.1873 23.3314 19.961 23.1882 19.8006C23.045 19.6403 22.8617 19.5601 22.6383 19.5601C22.415 19.5601 22.2317 19.6403 22.0885 19.8006C21.9453 19.961 21.8737 20.1873 21.8737 20.4794C21.8737 20.7715 21.9453 21.0006 22.0885 21.1667C22.2317 21.3271 22.415 21.4073 22.6383 21.4073Z" fill="#0C89A5"/>
<path d="M30.2538 19.646H28.819V22.8334H26.8859V19.646H25.4511V18.1339H30.2538V19.646Z" fill="#0C89A5"/>
<path d="M34.8073 20.3677C35.3228 20.5624 35.5806 20.9261 35.5806 21.4588C35.5806 21.8884 35.4116 22.2263 35.0737 22.4726C34.7357 22.7132 34.2403 22.8334 33.5873 22.8334H30.8123V18.1339H33.4499C34.0799 18.1339 34.5696 18.2427 34.919 18.4604C35.2684 18.6723 35.4431 18.973 35.4431 19.3625C35.4431 19.5801 35.3887 19.7749 35.2799 19.9467C35.171 20.1185 35.0135 20.2589 34.8073 20.3677ZM32.5134 19.9897H33.2781C33.5587 19.9897 33.699 19.878 33.699 19.6546C33.699 19.5458 33.6647 19.4656 33.5959 19.414C33.5329 19.3625 33.427 19.3367 33.2781 19.3367H32.5134V19.9897ZM33.4155 21.6306C33.6962 21.6306 33.8365 21.5132 33.8365 21.2784C33.8365 21.055 33.6962 20.9433 33.4155 20.9433H32.5134V21.6306H33.4155Z" fill="#0C89A5"/>
<path d="M41.1557 20.4794C41.1557 20.508 41.1471 20.6598 41.1299 20.9347H37.8651C37.9338 21.1123 38.0484 21.2497 38.2088 21.3471C38.3691 21.4388 38.5696 21.4846 38.8102 21.4846C39.0164 21.4846 39.1882 21.4588 39.3257 21.4073C39.4689 21.3557 39.6235 21.2669 39.7896 21.1409L40.8034 22.1633C40.3452 22.6673 39.6607 22.9194 38.75 22.9194C38.183 22.9194 37.6847 22.8163 37.2551 22.6101C36.8255 22.3981 36.4933 22.106 36.2585 21.7337C36.0237 21.3614 35.9062 20.9433 35.9062 20.4794C35.9062 20.0097 36.0208 19.5916 36.2499 19.225C36.4847 18.8527 36.8026 18.5635 37.2036 18.3573C37.6102 18.1511 38.0656 18.048 38.5696 18.048C39.045 18.048 39.4775 18.1425 39.8669 18.3315C40.2621 18.5205 40.5743 18.7983 40.8034 19.1649C41.0382 19.5314 41.1557 19.9696 41.1557 20.4794ZM38.5868 19.3711C38.3863 19.3711 38.2202 19.4255 38.0885 19.5343C37.9568 19.6431 37.8708 19.7978 37.8307 19.9982H39.3428C39.3028 19.8035 39.2168 19.6517 39.0851 19.5429C38.9534 19.4283 38.7873 19.3711 38.5868 19.3711Z" fill="#0C89A5"/>
<path d="M46.1783 19.646H44.7435V22.8334H42.8104V19.646H41.3756V18.1339H46.1783V19.646Z" fill="#0C89A5"/>
<path d="M49.0347 22.9194C48.5021 22.9194 48.0238 22.8163 47.6 22.6101C47.1818 22.4039 46.8525 22.1146 46.6119 21.7423C46.3771 21.37 46.2597 20.949 46.2597 20.4794C46.2597 20.0097 46.3771 19.5916 46.6119 19.225C46.8525 18.8527 47.1818 18.5635 47.6 18.3573C48.0238 18.1511 48.5021 18.048 49.0347 18.048C49.6075 18.048 50.0972 18.1711 50.5039 18.4174C50.9106 18.6637 51.1912 19.0045 51.3459 19.4398L49.8423 20.1787C49.6591 19.7663 49.387 19.5601 49.0261 19.5601C48.797 19.5601 48.6052 19.6403 48.4505 19.8006C48.3016 19.961 48.2271 20.1873 48.2271 20.4794C48.2271 20.7772 48.3016 21.0063 48.4505 21.1667C48.6052 21.3271 48.797 21.4073 49.0261 21.4073C49.387 21.4073 49.6591 21.2011 49.8423 20.7887L51.3459 21.5275C51.1912 21.9628 50.9106 22.3036 50.5039 22.5499C50.0972 22.7962 49.6075 22.9194 49.0347 22.9194Z" fill="#0C89A5"/>
<path d="M56.3723 19.646H54.9375V22.8334H53.0044V19.646H51.5696V18.1339H56.3723V19.646Z" fill="#0C89A5"/>
<path d="M60.9258 20.3677C61.4413 20.5624 61.6991 20.9261 61.6991 21.4588C61.6991 21.8884 61.5301 22.2263 61.1922 22.4726C60.8543 22.7132 60.3588 22.8334 59.7059 22.8334H56.9308V18.1339H59.5684C60.1984 18.1339 60.6882 18.2427 61.0375 18.4604C61.3869 18.6723 61.5616 18.973 61.5616 19.3625C61.5616 19.5801 61.5072 19.7749 61.3984 19.9467C61.2896 20.1185 61.132 20.2589 60.9258 20.3677ZM58.6319 19.9897H59.3966C59.6772 19.9897 59.8175 19.878 59.8175 19.6546C59.8175 19.5458 59.7832 19.4656 59.7145 19.414C59.6514 19.3625 59.5455 19.3367 59.3966 19.3367H58.6319V19.9897ZM59.534 21.6306C59.8147 21.6306 59.955 21.5132 59.955 21.2784C59.955 21.055 59.8147 20.9433 59.534 20.9433H58.6319V21.6306H59.534Z" fill="#0C89A5"/>
<path d="M67.2742 20.4794C67.2742 20.508 67.2656 20.6598 67.2484 20.9347H63.9836C64.0524 21.1123 64.1669 21.2497 64.3273 21.3471C64.4877 21.4388 64.6881 21.4846 64.9287 21.4846C65.1349 21.4846 65.3067 21.4588 65.4442 21.4073C65.5874 21.3557 65.742 21.2669 65.9081 21.1409L66.9219 22.1633C66.4637 22.6673 65.7792 22.9194 64.8685 22.9194C64.3015 22.9194 63.8032 22.8163 63.3736 22.6101C62.944 22.3981 62.6118 22.106 62.377 21.7337C62.1422 21.3614 62.0248 20.9433 62.0248 20.4794C62.0248 20.0097 62.1393 19.5916 62.3684 19.225C62.6033 18.8527 62.9211 18.5635 63.3221 18.3573C63.7287 18.1511 64.1841 18.048 64.6881 18.048C65.1635 18.048 65.596 18.1425 65.9854 18.3315C66.3806 18.5205 66.6928 18.7983 66.9219 19.1649C67.1567 19.5314 67.2742 19.9696 67.2742 20.4794ZM64.7053 19.3711C64.5048 19.3711 64.3387 19.4255 64.207 19.5343C64.0753 19.6431 63.9893 19.7978 63.9493 19.9982H65.4614C65.4213 19.8035 65.3354 19.6517 65.2036 19.5429C65.0719 19.4283 64.9058 19.3711 64.7053 19.3711Z" fill="#0C89A5"/>
<path d="M67.9722 18.1339H69.9053V19.7835H71.2284V18.1339H73.1615V22.8334H71.2284V21.3042H69.9053V22.8334H67.9722V18.1339Z" fill="#0C89A5"/>
<path d="M74.0719 18.1339H76.0049V19.7835H77.328V18.1339H79.2611V22.8334H77.328V21.3042H76.0049V22.8334H74.0719V18.1339Z" fill="#0C89A5"/>
<path d="M82.5943 22.9194C82.0731 22.9194 81.6034 22.8163 81.1853 22.6101C80.7729 22.3981 80.4493 22.1089 80.2145 21.7423C79.9796 21.37 79.8622 20.949 79.8622 20.4794C79.8622 20.0097 79.9796 19.5916 80.2145 19.225C80.4493 18.8527 80.7729 18.5635 81.1853 18.3573C81.6034 18.1511 82.0731 18.048 82.5943 18.048C83.1212 18.048 83.5909 18.1511 84.0033 18.3573C84.4214 18.5635 84.745 18.8527 84.9741 19.225C85.209 19.5916 85.3264 20.0097 85.3264 20.4794C85.3264 20.949 85.209 21.37 84.9741 21.7423C84.745 22.1089 84.4214 22.3981 84.0033 22.6101C83.5909 22.8163 83.1212 22.9194 82.5943 22.9194ZM82.5943 21.4073C82.8177 21.4073 83.001 21.3271 83.1442 21.1667C83.2873 21.0006 83.3589 20.7715 83.3589 20.4794C83.3589 20.1873 83.2873 19.961 83.1442 19.8006C83.001 19.6403 82.8177 19.5601 82.5943 19.5601C82.3709 19.5601 82.1876 19.6403 82.0444 19.8006C81.9013 19.961 81.8297 20.1873 81.8297 20.4794C81.8297 20.7715 81.9013 21.0006 82.0444 21.1667C82.1876 21.3271 82.3709 21.4073 82.5943 21.4073Z" fill="#0C89A5"/>
<path d="M88.3929 22.9194C87.8602 22.9194 87.382 22.8163 86.9581 22.6101C86.54 22.4039 86.2106 22.1146 85.9701 21.7423C85.7353 21.37 85.6178 20.949 85.6178 20.4794C85.6178 20.0097 85.7353 19.5916 85.9701 19.225C86.2106 18.8527 86.54 18.5635 86.9581 18.3573C87.382 18.1511 87.8602 18.048 88.3929 18.048C88.9657 18.048 89.4554 18.1711 89.862 18.4174C90.2687 18.6637 90.5494 19.0045 90.704 19.4398L89.2005 20.1787C89.0172 19.7663 88.7451 19.5601 88.3843 19.5601C88.1552 19.5601 87.9633 19.6403 87.8087 19.8006C87.6598 19.961 87.5853 20.1873 87.5853 20.4794C87.5853 20.7772 87.6598 21.0063 87.8087 21.1667C87.9633 21.3271 88.1552 21.4073 88.3843 21.4073C88.7451 21.4073 89.0172 21.2011 89.2005 20.7887L90.704 21.5275C90.5494 21.9628 90.2687 22.3036 89.862 22.5499C89.4554 22.7962 88.9657 22.9194 88.3929 22.9194Z" fill="#0C89A5"/>
<path d="M95.7304 19.646H94.2957V22.8334H92.3626V19.646H90.9278V18.1339H95.7304V19.646Z" fill="#0C89A5"/>
<path d="M99.2616 19.5515C99.8917 19.5515 100.376 19.689 100.714 19.9639C101.052 20.2388 101.22 20.6283 101.22 21.1323C101.22 21.6593 101.023 22.0745 100.628 22.3781C100.238 22.6817 99.7026 22.8334 99.021 22.8334H96.2889V18.1339H98.222V19.5515H99.2616ZM98.8234 21.5275C99.1041 21.5275 99.2444 21.3843 99.2444 21.098C99.2444 20.823 99.1041 20.6856 98.8234 20.6856H98.222V21.5275H98.8234Z" fill="#0C89A5"/>
<g clip-path="url(#clip0_3999_8243)">
<path d="M10.0046 0.0453326C9.58964 0.0151109 9.19007 0 8.79818 0H7.76853C7.04623 0 6.23941 0.16622 5.34038 0.491103C4.44135 0.815987 3.59611 1.32976 2.80466 2.0173C2.01321 2.7124 1.3447 3.59639 0.80682 4.66926C0.26894 5.74213 0 7.019 0 8.50742C0 9.1043 0.0922081 9.72385 0.276624 10.3812C0.46104 11.0385 0.760716 11.6354 1.16797 12.1794C1.57522 12.7309 2.10542 13.1842 2.75856 13.5393C3.4117 13.8944 4.21083 14.0758 5.16365 14.0758C6.25478 14.0758 7.32285 13.834 8.3602 13.3505C9.39754 12.8669 10.3657 12.1945 11.2724 11.3332C11.2263 11.0914 11.1341 10.7967 10.9958 10.4567C10.8575 10.1092 10.6961 9.77673 10.5117 9.43674C10.3273 9.1043 10.1352 8.79453 9.93542 8.49986C9.73563 8.21276 9.56658 8.00121 9.42827 7.86521C8.84429 8.35631 8.26799 8.75675 7.69169 9.05897C7.11539 9.36874 6.55445 9.51985 6.01657 9.51985C5.87826 9.51985 5.73995 9.48963 5.59395 9.42918C5.44796 9.36874 5.30965 9.27052 5.1867 9.14963C5.06376 9.02874 4.96387 8.86253 4.87934 8.65853C4.79482 8.46209 4.74871 8.22787 4.74871 7.96343C4.74871 7.63855 4.8025 7.28344 4.90239 6.89056C5.00229 6.49012 5.16365 6.12746 5.39417 5.79502C5.62469 5.46258 5.93205 5.18303 6.31625 4.96392C6.70045 4.73726 7.18454 4.62393 7.76853 4.62393C7.89147 4.62393 8.09126 4.64659 8.36788 4.68437C8.6445 4.7297 8.9365 4.77503 9.24386 4.82792C9.55122 4.87326 9.85089 4.92614 10.1429 4.98659C10.4349 5.04703 10.65 5.09236 10.7883 5.12259C10.8805 4.92614 10.9958 4.63904 11.1341 4.27638C11.2724 3.90616 11.4184 3.50572 11.5644 3.06751C11.7104 2.62929 11.841 2.17597 11.964 1.69997C12.0869 1.22398 12.1868 0.770654 12.2637 0.34755C11.9563 0.271996 11.6105 0.211552 11.2186 0.158664C10.8268 0.113332 10.4195 0.0755543 10.0046 0.0453326ZM120.516 8.04654C120.362 7.91054 120.178 7.77454 119.963 7.63855C119.747 7.97098 119.463 8.26565 119.11 8.51498C118.756 8.76431 118.441 8.88519 118.165 8.88519C117.996 8.88519 117.85 8.84741 117.727 8.76431C117.604 8.6812 117.542 8.46964 117.542 8.1372C117.542 7.63855 117.588 7.13233 117.681 6.61856C117.773 6.10479 117.873 5.62124 117.98 5.16036C118.088 4.69948 118.188 4.27638 118.28 3.89105C118.372 3.50572 118.418 3.19595 118.418 2.95418C117.634 2.76529 116.897 2.63685 116.197 2.55374C115.498 2.47063 114.822 2.42529 114.177 2.42529C112.302 2.42529 110.834 2.76529 109.774 3.44528C108.713 4.12527 108.183 5.05459 108.183 6.23323C108.183 6.56567 108.237 6.89811 108.344 7.223C108.36 7.26833 108.383 7.31366 108.398 7.35899C108.368 7.35144 108.352 7.33633 108.321 7.32122C108.014 7.72921 107.684 8.07676 107.33 8.35631C106.977 8.63586 106.662 8.77186 106.385 8.77186C106.093 8.77186 105.947 8.49231 105.947 7.93321C105.947 7.60077 105.985 7.223 106.062 6.79234C106.139 6.36168 106.231 5.91591 106.339 5.45502C106.446 4.99414 106.562 4.54082 106.677 4.09505C106.792 3.64928 106.877 3.24128 106.938 2.87862C106.493 2.77284 105.985 2.67462 105.409 2.5764C104.833 2.47818 104.303 2.42529 103.826 2.42529C103.688 2.42529 103.58 2.46307 103.504 2.54618C103.427 2.62174 103.373 2.73507 103.334 2.87107C103.296 3.00706 103.265 3.16573 103.242 3.34706C103.219 3.52839 103.188 3.70972 103.158 3.8986C102.896 3.39995 102.535 3.02973 102.074 2.78796C101.613 2.54618 101.068 2.42529 100.438 2.42529C99.8075 2.42529 99.1928 2.58396 98.5858 2.89373C97.9787 3.2035 97.4332 3.64928 96.9491 4.21593C96.465 4.79015 96.0731 5.47014 95.7811 6.27101C95.5659 6.86789 95.4276 7.51766 95.3738 8.22031C95.3201 8.2732 95.2663 8.32609 95.2048 8.37898C94.8974 8.64342 94.5593 8.77186 94.1905 8.77186C93.9293 8.77186 93.7679 8.69631 93.7064 8.5452C93.6449 8.39409 93.6142 8.16743 93.6142 7.86521C93.6142 7.66877 93.6449 7.38922 93.7064 7.02656C93.7679 6.66389 93.8447 6.27101 93.9293 5.84035C94.0138 5.40969 94.106 4.95637 94.2059 4.48793C94.3058 4.01949 94.3903 3.58883 94.4671 3.19595C94.3135 3.14306 94.0829 3.08262 93.7756 3.01462C93.4682 2.95418 93.1378 2.90129 92.7843 2.85595C92.4309 2.81062 92.0774 2.76529 91.7163 2.72751C91.3551 2.69729 91.0478 2.67462 90.8019 2.67462C90.725 3.04484 90.6251 3.53594 90.4945 4.15549C90.3639 4.77503 90.2256 5.51547 90.0872 6.37679C89.6569 6.45234 89.2343 6.57323 88.8194 6.73189C88.4044 6.89811 88.0356 7.06433 87.7129 7.23055C87.8512 6.41456 87.9895 5.65147 88.1278 4.9337C88.2661 4.21593 88.3891 3.6115 88.4967 3.12795C87.9742 2.99195 87.3671 2.88618 86.6756 2.80307C85.984 2.71996 85.3616 2.67462 84.8083 2.67462H84.4626C84.4165 2.84084 84.3627 3.16573 84.3012 3.65683C84.3012 3.6795 84.2935 3.70216 84.2935 3.71727C83.9477 3.82305 83.5328 3.95905 83.0333 4.12527C82.3418 4.35193 81.6195 4.60126 80.8664 4.8657C80.1134 5.13014 79.3911 5.39458 78.6996 5.65902C78.008 5.92346 77.4701 6.15768 77.0859 6.36923C77.2089 5.79502 77.3702 5.27369 77.5623 4.7977C77.7544 4.32171 77.9312 3.77772 78.1002 3.17328C77.5931 2.99951 77.0091 2.87107 76.3483 2.79551C75.6874 2.7124 75.0189 2.67462 74.3427 2.67462C74.2198 3.11284 74.0892 3.62661 73.9432 4.22349C73.7972 4.82037 73.6589 5.43236 73.5359 6.05946C73.413 6.68656 73.3131 7.29099 73.2286 7.88787C73.2132 7.99365 73.2055 8.07676 73.1978 8.18254C73.1363 8.23542 73.0902 8.29587 73.0211 8.3412C72.8597 8.46209 72.683 8.56786 72.4986 8.65853C72.3142 8.74919 72.1297 8.79453 71.9453 8.79453C71.6841 8.79453 71.5227 8.71897 71.4535 8.56031C71.3844 8.40164 71.346 8.19765 71.346 7.95587C71.346 7.74432 71.3767 7.45721 71.4382 7.09455C71.4996 6.73189 71.5842 6.3239 71.6841 5.87057C71.784 5.41725 71.8915 4.94881 72.0145 4.45771C72.1374 3.9666 72.2604 3.4755 72.3833 2.99195C71.6456 2.83329 70.7927 2.69729 69.8169 2.59151C68.841 2.47818 67.8344 2.42529 66.8047 2.42529H65.7828C65.4523 2.42529 65.1142 2.44041 64.7761 2.47063C64.561 3.67194 64.3382 4.68437 64.1076 5.50791C63.8771 6.33145 63.6389 7.00389 63.3853 7.51766C63.1318 8.03898 62.8782 8.4092 62.6323 8.63586C62.4556 8.79453 62.2942 8.87764 62.1252 8.92297C62.2327 8.71142 62.3403 8.49986 62.4479 8.2732C62.2942 8.04654 62.1482 7.85765 62.0022 7.70654C61.8562 7.55544 61.6334 7.42699 61.3414 7.32122C61.034 7.72921 60.7036 8.07676 60.3502 8.35631C59.9967 8.63586 59.6817 8.77186 59.405 8.77186C59.113 8.77186 58.967 8.49231 58.967 7.93321C58.967 7.60077 59.0055 7.223 59.0823 6.79234C59.1591 6.36168 59.2513 5.91591 59.3589 5.45502C59.4665 4.99414 59.5818 4.54082 59.697 4.09505C59.8123 3.64928 59.8968 3.24128 59.9583 2.87862C59.5126 2.77284 59.0055 2.67462 58.4292 2.5764C57.8529 2.47818 57.3227 2.42529 56.8463 2.42529C56.7079 2.42529 56.6004 2.46307 56.5235 2.54618C56.4467 2.62174 56.3929 2.73507 56.3545 2.87107C56.3161 3.00706 56.2853 3.16573 56.2623 3.34706C56.2392 3.52839 56.2085 3.70972 56.1777 3.8986C55.9165 3.39995 55.5553 3.02973 55.0943 2.78796C54.6333 2.54618 54.0877 2.42529 53.4576 2.42529C52.8275 2.42529 52.2128 2.58396 51.6058 2.89373C50.9987 3.2035 50.4532 3.64928 49.9691 4.21593C49.485 4.79015 49.0931 5.47014 48.8011 6.27101C48.5936 6.84522 48.463 7.47233 48.4015 8.14476C48.294 8.24298 48.171 8.32609 48.0327 8.40164C47.8713 8.48475 47.6869 8.52253 47.4871 8.52253C47.2105 8.52253 47.0338 8.43187 46.9569 8.25054C46.8801 8.06921 46.8417 7.82743 46.8417 7.52521C46.8417 7.29855 46.8724 6.98122 46.9262 6.56567C46.98 6.15012 47.0415 5.71191 47.1183 5.25858C47.1951 4.80526 47.2797 4.36704 47.3642 3.94394C47.4487 3.52083 47.5179 3.17328 47.5793 2.90129C47.1029 2.7804 46.6419 2.71996 46.1885 2.71996H43.7297C43.6682 3.24884 43.6067 3.77016 43.5452 4.29149C43.4838 4.81281 43.4146 5.29636 43.3378 5.75724C43.2609 6.21812 43.1687 6.63367 43.0612 7.01144C42.9536 7.38922 42.8306 7.69899 42.6923 7.94076C42.4772 8.28831 42.239 8.58297 41.97 8.83986C41.7011 9.09674 41.4321 9.22519 41.1709 9.22519C40.925 9.22519 40.756 9.14963 40.6637 8.99852C40.5715 8.84741 40.5254 8.62075 40.5254 8.31853C40.5254 8.03143 40.5485 7.72166 40.5946 7.38166C40.6407 7.04167 40.7098 6.65634 40.8021 6.23323C40.8943 5.81013 41.0095 5.34169 41.1478 4.82037C41.2861 4.29904 41.4475 3.70972 41.6319 3.05995C41.386 2.96929 41.1094 2.88618 40.7944 2.81062C40.4793 2.73507 40.1489 2.66707 39.8031 2.60663C39.4574 2.54618 39.1116 2.50085 38.7658 2.47063C38.42 2.44041 38.0973 2.42529 37.8053 2.42529C37.6516 3.09017 37.4979 3.7475 37.3443 4.39726C37.1906 5.04703 37.0523 5.67413 36.9293 6.27857C36.8217 6.79989 36.7372 7.29855 36.6681 7.77454C36.499 7.88787 36.33 8.00121 36.1455 8.12965C35.915 8.28831 35.6922 8.44698 35.477 8.60564C35.2619 8.76431 35.0698 8.90786 34.9007 9.04386C34.7317 8.92297 34.6164 8.76431 34.5473 8.56786C34.4781 8.37142 34.4397 8.09943 34.4397 7.75188C34.4397 7.58566 34.4781 7.33633 34.555 7.00389C34.6318 6.67145 34.7317 6.30123 34.847 5.88568C34.9622 5.47014 35.0852 5.03192 35.2235 4.57104C35.3618 4.11016 35.4924 3.66439 35.6154 3.24128C35.3387 3.18084 35.0391 3.12039 34.7086 3.0524C34.3782 2.9844 34.0478 2.92395 33.7174 2.87107C33.387 2.81818 33.0643 2.77284 32.7569 2.74262C32.4495 2.7124 32.1729 2.69729 31.927 2.69729C31.8656 2.69729 31.8041 2.70485 31.7426 2.7124C31.6811 2.71996 31.6274 2.71996 31.5813 2.71996C31.3815 3.77772 31.1817 4.77503 30.9819 5.71191C30.7821 6.64878 30.6592 7.5781 30.6131 8.49986C30.4287 8.6812 30.2212 8.85497 29.983 9.01363C29.7448 9.1723 29.4682 9.24785 29.1608 9.24785C28.8842 9.24785 28.6767 9.13452 28.5307 8.9003C28.3847 8.66608 28.3079 8.41675 28.3079 8.15987C28.3079 7.44966 28.4385 6.64123 28.6998 5.72702C28.961 4.81281 29.2376 3.8986 29.5296 2.99195C29.3145 2.93151 29.0532 2.87107 28.7459 2.80307C28.4385 2.73507 28.1158 2.66707 27.77 2.60663C27.4242 2.54618 27.0707 2.50085 26.7173 2.47063C26.3638 2.44041 26.0411 2.42529 25.7491 2.42529C25.6799 2.65951 25.6261 2.88618 25.557 3.12039C25.3111 3.4075 25.0191 3.71727 24.6426 4.05727C24.1662 4.48037 23.636 4.85814 23.052 5.19058C22.8983 4.81281 22.6985 4.45771 22.445 4.11771C22.1914 3.77772 21.8917 3.48306 21.5459 3.23373C21.2002 2.9844 20.8006 2.78796 20.3549 2.6444C19.9093 2.50085 19.4098 2.42529 18.8565 2.42529C18.1342 2.42529 17.5118 2.61418 16.9893 2.9844C16.4668 3.35461 16.1057 3.82305 15.9059 4.39726C15.7215 4.23104 15.5371 4.07994 15.3526 3.94394C15.1682 3.80794 14.9915 3.70972 14.8224 3.64928C14.4997 3.90616 14.1924 4.20082 13.8927 4.53326C13.593 4.8657 13.3241 5.24347 13.0935 5.66658C12.863 6.08968 12.6786 6.56567 12.5403 7.087C12.402 7.60832 12.3328 8.17498 12.3328 8.79453C12.3328 9.39896 12.4327 9.98829 12.6248 10.5549C12.8169 11.1216 13.1089 11.6278 13.5085 12.0736C13.908 12.5194 14.4306 12.8745 15.0683 13.1389C15.7061 13.4033 16.4591 13.5318 17.3351 13.5318C18.1804 13.5318 18.9641 13.3882 19.6787 13.1011C20.3933 12.814 21.0157 12.4211 21.5459 11.9149C22.0761 11.4087 22.4988 10.8043 22.8138 10.1016C23.1288 9.39896 23.3209 8.62831 23.3978 7.79721C23.8127 7.6461 24.2046 7.47233 24.5734 7.28344C24.4582 7.97854 24.389 8.59809 24.389 9.13452C24.389 10.4038 24.6733 11.3634 25.2419 12.0131C25.8106 12.6629 26.6481 12.9878 27.7546 12.9878C28.1542 12.9878 28.6075 12.8594 29.107 12.5949C29.6065 12.3305 30.2135 11.8469 30.9358 11.1518C31.0895 11.3029 31.2816 11.454 31.5121 11.6051C31.7426 11.7563 32.0423 11.8318 32.4111 11.8318H32.5264C32.3573 11.998 32.1806 12.202 31.9885 12.4362C31.7964 12.6705 31.612 12.9122 31.4353 13.1691C31.2585 13.426 31.0895 13.6829 30.9358 13.9398C30.7821 14.1967 30.6592 14.4384 30.567 14.6651C30.6745 14.7558 30.8743 14.8691 31.1586 14.9975C31.4429 15.126 31.758 15.2544 32.1038 15.3904C32.4495 15.5264 32.7953 15.6549 33.1488 15.7682C33.5023 15.8815 33.8096 15.9722 34.0709 16.0477C34.3014 15.3678 34.5473 14.7104 34.8085 14.0758C35.0698 13.4411 35.3695 12.8291 35.7076 12.2323C35.9842 11.7411 36.3146 11.2576 36.6681 10.7741C36.7526 11.1065 36.8755 11.4238 37.0599 11.7109C37.2674 12.0358 37.5517 12.3002 37.9129 12.5118C38.274 12.7234 38.7351 12.8291 39.3037 12.8291C40.026 12.8291 40.6791 12.6554 41.2631 12.3002C41.8471 11.9451 42.4464 11.4163 43.0612 10.7212V10.8345C43.0612 11.0309 43.0996 11.2576 43.1687 11.5145C43.2379 11.7714 43.3531 12.0131 43.5145 12.2398C43.6759 12.4665 43.891 12.6554 44.1676 12.8065C44.4443 12.9576 44.7824 13.0331 45.1819 13.0331C45.8735 13.0331 46.5036 12.8367 47.0645 12.4438C47.6255 12.0509 48.1095 11.5976 48.5245 11.0763C48.5936 10.9856 48.6474 10.9025 48.7166 10.8118C48.8856 11.2198 49.0854 11.59 49.3544 11.8923C49.6617 12.2474 50.0305 12.5118 50.4532 12.6931C50.8758 12.8745 51.3291 12.9651 51.8209 12.9651C52.2205 12.9651 52.5893 12.9047 52.9274 12.7914C53.2655 12.6705 53.5806 12.5118 53.8725 12.3078C54.1645 12.1114 54.4258 11.8847 54.6486 11.6278C54.8715 11.3785 55.0636 11.114 55.2326 10.8345C55.2326 11.0914 55.2787 11.3483 55.3709 11.5976C55.4631 11.8469 55.5938 12.0736 55.7628 12.2776C55.9319 12.4816 56.147 12.6478 56.4006 12.7762C56.6542 12.9047 56.9385 12.9651 57.2612 12.9651C58.1833 12.9651 59.1054 12.5798 60.0197 11.8091C60.0274 11.8016 60.0351 11.794 60.0428 11.7865C60.0197 12.0131 59.9967 12.2398 59.9813 12.4665C60.1811 12.678 60.4962 12.882 60.9265 13.0709C61.3568 13.2598 61.8562 13.3505 62.4248 13.3505C63.1164 13.3505 63.7158 13.1767 64.2152 12.8216C64.7147 12.4665 65.1373 11.9527 65.4908 11.2878C65.8442 10.6229 66.1516 9.81451 66.4052 8.85497C66.6587 7.89543 66.8739 6.80745 67.0583 5.59858C67.2427 5.61369 67.4348 5.64391 67.6346 5.68169C67.8344 5.71946 68.0418 5.74969 68.257 5.77991C68.1033 6.58078 67.9266 7.36655 67.7268 8.1372C67.527 8.90786 67.4271 9.72385 67.4271 10.5852C67.4271 10.9025 67.4579 11.2123 67.5193 11.5145C67.5808 11.8167 67.6884 12.0887 67.8421 12.3305C67.9957 12.5722 68.2109 12.7687 68.4875 12.9198C68.7641 13.0709 69.1253 13.1465 69.571 13.1465C70.2472 13.1465 70.8849 12.9651 71.4766 12.6025C72.0683 12.2398 72.5908 11.8091 73.0441 11.3029C73.1517 11.182 73.2362 11.0612 73.3361 10.9478C73.4668 11.3709 73.6512 11.7638 73.9201 12.1038C74.2198 12.4967 74.627 12.8291 75.1419 13.0936C75.6567 13.358 76.3021 13.4865 77.0859 13.4865C77.6392 13.4865 78.2308 13.3958 78.8609 13.2069C79.491 13.018 80.075 12.7234 80.6052 12.3305C81.1354 11.9376 81.5734 11.4314 81.9268 10.8043C82.2803 10.1772 82.457 9.41407 82.457 8.52253C82.457 8.15987 82.4109 7.83499 82.3187 7.54032C82.2265 7.24566 82.0575 7.04922 81.8116 6.95856C82.0575 6.883 82.311 6.82256 82.5646 6.76967C82.8182 6.71678 83.0948 6.67145 83.3945 6.63367C83.5712 6.61101 83.7633 6.58834 83.9631 6.55812C83.9324 6.86034 83.8939 7.17011 83.8632 7.49499C83.7864 8.25054 83.7172 8.97586 83.6481 9.68607C83.5789 10.3963 83.5251 11.0385 83.4867 11.6127C83.4483 12.1794 83.4252 12.6176 83.4252 12.9198C83.4867 12.9349 83.5635 12.9425 83.6481 12.9425H84.7392C85.0312 12.9425 85.3232 12.9349 85.6152 12.9122C85.9072 12.8896 86.1838 12.8669 86.445 12.8367C86.7063 12.814 86.9214 12.7989 87.0905 12.7838C87.1212 12.5722 87.152 12.2323 87.175 11.7563C87.1981 11.2878 87.2519 10.6985 87.3441 9.99584C87.4977 9.92029 87.6745 9.85229 87.8743 9.79184C88.074 9.7314 88.2892 9.67851 88.512 9.63318C88.7349 9.58785 88.95 9.55763 89.1575 9.53496C89.365 9.51229 89.5417 9.49718 89.6954 9.49718C89.6954 9.90518 89.7261 10.3207 89.7799 10.7438C89.8337 11.1669 89.9413 11.5523 90.1103 11.8998C90.2794 12.2474 90.5329 12.5345 90.871 12.7611C91.2091 12.9878 91.6702 13.1011 92.2541 13.1011C92.7152 13.1011 93.1532 13.0105 93.5604 12.8216C93.9677 12.6327 94.3365 12.3834 94.6746 12.0811C95.0127 11.7789 95.3201 11.454 95.5967 11.0989C95.6428 11.0385 95.6889 10.9705 95.735 10.91C95.8964 11.2803 96.0885 11.6203 96.3344 11.8923C96.6417 12.2474 97.0105 12.5118 97.4332 12.6931C97.8558 12.8745 98.3091 12.9651 98.8009 12.9651C99.2005 12.9651 99.5693 12.9047 99.9074 12.7914C100.246 12.6705 100.561 12.5118 100.853 12.3078C101.145 12.1114 101.406 11.8847 101.629 11.6278C101.851 11.3785 102.044 11.114 102.213 10.8345C102.213 11.0914 102.259 11.3483 102.351 11.5976C102.443 11.8469 102.574 12.0736 102.743 12.2776C102.912 12.4816 103.127 12.6478 103.381 12.7762C103.634 12.9047 103.918 12.9651 104.241 12.9651C104.856 12.9651 105.471 12.7762 106.085 12.4362C106.155 12.6402 106.239 12.8518 106.331 13.0482C106.493 13.4033 106.677 13.7282 106.884 14.0229C107.092 14.3175 107.315 14.5593 107.561 14.7407C108.114 14.7407 108.667 14.6122 109.213 14.3629C109.758 14.1136 110.265 13.766 110.742 13.3202C111.218 12.8745 111.649 12.3456 112.025 11.7336C112.402 11.1216 112.701 10.4567 112.932 9.74651C113.039 9.74651 113.147 9.75407 113.255 9.76162C113.362 9.76918 113.47 9.76918 113.577 9.76918C113.639 9.76918 113.693 9.76918 113.739 9.76162C113.785 9.75407 113.831 9.74651 113.877 9.74651C113.862 9.88251 113.854 10.0185 113.846 10.1469C113.839 10.2754 113.831 10.3963 113.831 10.5172C113.831 11.4238 114 12.0963 114.33 12.5345C114.661 12.9727 115.214 13.1918 115.998 13.1918C116.705 13.1918 117.342 13.0105 117.903 12.6478C118.464 12.2851 118.948 11.8545 119.363 11.3558C119.778 10.8572 120.124 10.3434 120.393 9.81451C120.662 9.28563 120.862 8.84741 121 8.49986C120.831 8.33364 120.67 8.18254 120.516 8.04654ZM18.7567 9.5274C18.4416 9.84473 18.0728 9.99584 17.6578 9.99584C17.1968 9.99584 16.851 9.85984 16.6205 9.58785C16.39 9.31585 16.2747 8.96075 16.2747 8.52253C16.2747 8.08432 16.3669 7.66877 16.5513 7.26077C16.9048 7.60832 17.3351 7.88032 17.8423 8.08432C18.3494 8.28076 18.9026 8.37898 19.502 8.37898C19.3176 8.8323 19.0717 9.21763 18.7567 9.5274ZM18.9026 5.74213C18.7029 5.59858 18.5876 5.43991 18.5569 5.26614C18.5415 5.23592 18.5338 5.18303 18.5338 5.10747C18.5338 4.98659 18.5722 4.88081 18.6414 4.78259C18.7105 4.69193 18.7951 4.64659 18.9026 4.64659C19.2561 4.64659 19.502 4.78259 19.6326 5.04703C19.7633 5.31903 19.8401 5.62124 19.8708 5.96124C19.4252 5.96124 19.1024 5.88568 18.9026 5.74213ZM55.3709 7.36655C55.2326 7.72921 55.0636 8.06921 54.8638 8.37898C54.664 8.68875 54.4488 8.93808 54.2106 9.13452C53.9724 9.33096 53.7265 9.42918 53.4807 9.42918C53.1733 9.42918 52.9505 9.32341 52.8045 9.1043C52.6585 8.88519 52.5816 8.60564 52.5816 8.2732C52.5816 7.88032 52.6354 7.51766 52.743 7.18522C52.8506 6.85278 52.9889 6.56567 53.1579 6.3239C53.327 6.08213 53.5268 5.89324 53.7496 5.75724C53.9724 5.62124 54.1953 5.55325 54.4258 5.55325C54.6102 5.55325 54.8254 5.61369 55.0712 5.73458C55.3171 5.85546 55.5169 6.04435 55.6706 6.30123C55.6091 6.64878 55.5092 7.00389 55.3709 7.36655ZM78.4229 9.79184C78.1617 10.1545 77.8236 10.3358 77.4086 10.3358C77.1628 10.3358 76.9783 10.2678 76.8477 10.1318C76.7171 9.99584 76.6479 9.75407 76.6479 9.40652C76.6479 9.1043 76.7017 8.74164 76.8093 8.31853C77.0398 8.18254 77.2396 8.06921 77.401 7.97098C77.5623 7.87276 77.7544 7.81988 77.9849 7.81988C78.2155 7.81988 78.4153 7.89543 78.5766 8.03898C78.738 8.18254 78.8148 8.37898 78.8148 8.63586C78.8148 9.04386 78.6842 9.42918 78.4229 9.79184ZM102.351 7.36655C102.213 7.72921 102.044 8.06921 101.844 8.37898C101.644 8.68875 101.429 8.93808 101.191 9.13452C100.952 9.33096 100.707 9.42918 100.461 9.42918C100.153 9.42918 99.9305 9.32341 99.7845 9.1043C99.6385 8.88519 99.5616 8.60564 99.5616 8.2732C99.5616 7.88032 99.6154 7.51766 99.723 7.18522C99.8306 6.85278 99.9689 6.56567 100.138 6.3239C100.307 6.08213 100.507 5.89324 100.73 5.75724C100.952 5.62124 101.175 5.55325 101.406 5.55325C101.59 5.55325 101.805 5.61369 102.051 5.73458C102.297 5.85546 102.497 6.04435 102.651 6.30123C102.589 6.64878 102.489 7.00389 102.351 7.36655ZM109.351 10.011C108.99 10.1772 108.613 10.3132 108.229 10.4265C108.59 9.90518 108.936 9.30074 109.259 8.62075C109.351 8.70386 109.436 8.78697 109.535 8.85497C109.82 9.05897 110.135 9.20252 110.488 9.29319C110.135 9.58029 109.758 9.82207 109.351 10.011ZM114.33 6.33901C114.307 6.4599 114.284 6.58834 114.261 6.71678C114.238 6.84522 114.215 6.97367 114.2 7.10966C114.184 7.23811 114.161 7.40433 114.131 7.60077C113.777 7.74432 113.439 7.81988 113.116 7.81988C112.763 7.81988 112.478 7.72921 112.263 7.53277C112.048 7.34388 111.941 7.10966 111.941 6.82256C111.941 6.51278 112.056 6.27101 112.279 6.08213C112.501 5.89324 112.893 5.79502 113.462 5.79502C113.723 5.79502 114.038 5.82524 114.407 5.87813C114.376 6.05946 114.353 6.21057 114.33 6.33901Z" fill="url(#paint0_linear_3999_8243)"/>
</g>
<defs>
<linearGradient id="paint0_linear_3999_8243" x1="60.5" y1="0" x2="60.5" y2="12.6669" gradientUnits="userSpaceOnUse">
<stop stop-color="#D23C23"/>
<stop offset="1" stop-color="#EB5C44"/>
</linearGradient>
<clipPath id="clip0_3999_8243">
<rect width="121" height="16.0477" fill="white"/>
</clipPath>
</defs>
</svg>
