<svg width="38" height="38" viewBox="0 0 38 38" fill="none" xmlns="http://www.w3.org/2000/svg">
<path d="M0 19C0 29.4934 8.50659 38 19 38C29.4934 38 38 29.4934 38 19C38 8.50659 29.4934 0 19 0C8.50659 0 0 8.50659 0 19Z" fill="#73B129"/>
<path fill-rule="evenodd" clip-rule="evenodd" d="M19 29C13.48 29 9 24.52 9 19C9 13.48 13.48 9 19 9C24.52 9 29 13.48 29 19C29 24.52 24.52 29 19 29ZM19 27C20.86 27 22.57 26.36 23.93 25.28C23.51 24.38 20.88 23.5 19 23.5C17.12 23.5 14.5 24.38 14.07 25.28C15.43 26.36 17.14 27 19 27ZM19 11C14.59 11 11 14.59 11 19C11 20.82 11.62 22.49 12.64 23.83C14.07 22.09 17.54 21.5 19 21.5C20.46 21.5 23.93 22.09 25.36 23.83C26.38 22.49 27 20.82 27 19C27 14.59 23.41 11 19 11ZM19 20C17.06 20 15.5 18.44 15.5 16.5C15.5 14.56 17.06 13 19 13C20.94 13 22.5 14.56 22.5 16.5C22.5 18.44 20.94 20 19 20ZM19 15C18.17 15 17.5 15.669 17.5 16.5C17.5 17.33 18.17 18 19 18C19.83 18 20.5 17.33 20.5 16.5C20.5 15.669 19.83 15 19 15Z" fill="white"/>
</svg>
