<svg width="111" height="19" viewBox="0 0 111 19" fill="none" xmlns="http://www.w3.org/2000/svg">
<path fill-rule="evenodd" clip-rule="evenodd" d="M80.7725 8.63632V14.8296H83.4323V8.57359C83.4323 7.91966 83.6836 7.36459 84.1078 6.96919C84.5361 6.57189 85.1392 6.34187 85.8368 6.34187C86.6511 6.34187 87.1879 6.5852 87.5397 6.92166C88.0845 7.44252 88.173 8.17439 88.173 8.57359V12.3907C88.173 13.7157 89.2908 14.7954 90.6821 14.8296H90.8308H90.8328V8.63632C90.8328 7.21441 90.3544 6.01111 89.4718 5.17089C88.6193 4.36108 87.3849 3.88965 85.8368 3.88965C84.327 3.88965 83.0744 4.3858 82.1939 5.21081C81.2871 6.06053 80.7725 7.26384 80.7725 8.63632Z" fill="white"/>
<path fill-rule="evenodd" clip-rule="evenodd" d="M55.5235 11.552C55.5235 10.421 55.0329 9.71381 54.2046 9.23857C53.3482 8.74813 52.1278 8.4915 50.7044 8.27099C49.9746 8.16263 49.3916 8.05998 48.9854 7.90981C48.5271 7.74062 48.2798 7.50681 48.2798 7.14943C48.2798 6.87379 48.4768 6.58104 48.9211 6.37954C49.2528 6.23127 49.7273 6.13052 50.3687 6.13052C50.9175 6.13052 51.3618 6.22747 51.7016 6.38715C52.0494 6.55063 52.2846 6.78064 52.4093 7.04488H55.1978C54.9827 6.12672 54.4298 5.36253 53.6357 4.82076C52.7872 4.24097 51.6614 3.91211 50.3687 3.91211C47.1217 3.91211 45.5737 5.62487 45.5737 7.27489C45.5737 8.43257 46.2311 9.13782 47.1338 9.59025C48.0626 10.056 49.2569 10.2594 50.2802 10.4077C51.3116 10.5597 51.9328 10.7023 52.3027 10.8886C52.7209 11.0996 52.8395 11.3562 52.8395 11.7231C52.8395 12.0938 52.5963 12.3751 52.1921 12.5652C51.7941 12.7515 51.2332 12.8466 50.5938 12.8466C50.0852 12.8466 49.472 12.7363 48.9533 12.4683C48.5592 12.2649 48.2215 11.9721 48.0184 11.5691H45.2842C45.4892 12.6242 46.0803 13.4853 46.9488 14.0917C47.8837 14.7437 49.1423 15.1049 50.5918 15.1049C52.0434 15.1049 53.2838 14.7323 54.1564 14.0974C55.0169 13.472 55.5235 12.588 55.5235 11.552Z" fill="white"/>
<path fill-rule="evenodd" clip-rule="evenodd" d="M7.43069 14.8355V12.4042H5.8766C4.97591 12.4042 4.17373 12.0867 3.60075 11.5563C3.03179 11.0298 2.68599 10.2941 2.68599 9.45009C2.68599 8.59086 3.03581 7.81147 3.59874 7.24498C4.16368 6.6785 4.94575 6.32682 5.81026 6.32682C6.67476 6.32682 7.45683 6.68991 8.02177 7.2735C8.58671 7.85519 8.93452 8.65739 8.93452 9.53753V12.2597C8.94056 13.0163 9.19186 13.6113 9.68644 14.0922C10.1609 14.5408 10.8425 14.8184 11.5944 14.8317V9.53563C11.5944 7.95404 10.9772 6.52262 9.9277 5.49801C8.9104 4.50761 7.48297 3.89551 5.81026 3.89551C4.13352 3.89551 2.70408 4.50381 1.68477 5.479C0.621235 6.49221 0 7.90652 0 9.45009C0 10.9556 0.60113 12.311 1.60033 13.2862C2.58345 14.2443 3.95258 14.8355 5.51472 14.8355H7.43069Z" fill="white"/>
<path fill-rule="evenodd" clip-rule="evenodd" d="M111 12.6509C109.539 12.5825 108.885 11.5446 108.885 10.5086V6.57739H111V4.16889H108.885V0.00390625H106.226V10.423C106.226 11.7784 106.72 12.9608 107.603 13.7953C108.425 14.5728 109.587 15.0499 111 15.0822V12.6509Z" fill="white"/>
<path d="M78.3596 12.1221H75.4746V14.829H78.3596V12.1221Z" fill="white"/>
<path fill-rule="evenodd" clip-rule="evenodd" d="M63.002 8.63632V14.8296H65.6618V8.57359C65.6618 7.91966 65.9131 7.36459 66.3373 6.96919C66.7656 6.57189 67.3687 6.34187 68.0663 6.34187C68.8806 6.34187 69.3751 6.63082 69.727 6.96729C70.2718 7.48815 70.4045 8.01851 70.4045 8.57359V12.3907C70.4045 13.7157 71.5223 14.7954 72.9136 14.8296H73.0623H73.0644V8.63632C73.0644 7.21441 72.5859 6.01111 71.7033 5.17089C70.8508 4.36108 69.6164 3.88965 68.0683 3.88965C66.5585 3.88965 65.306 4.3858 64.4254 5.21081C63.5166 6.06053 63.002 7.26384 63.002 8.63632Z" fill="white"/>
<path d="M60.4001 4.16699H57.7402V14.8294H60.4001V4.16699Z" fill="white"/>
<path d="M43.5111 0H40.8291V14.8293H43.5111V0Z" fill="white"/>
<path fill-rule="evenodd" clip-rule="evenodd" d="M33.5988 10.448H38.631C38.6571 10.1704 38.6712 9.90051 38.6712 9.63817C38.6712 7.92542 38.1042 6.56434 37.1915 5.60056C36.2807 4.63677 35.0222 4.06459 33.639 3.92582C33.4198 3.90301 33.1947 3.8916 32.9655 3.8916C31.3651 3.8916 29.9136 4.52462 28.8621 5.54353C27.8106 6.56434 27.1572 7.97484 27.1572 9.53172C27.1572 11.0658 27.8106 12.4611 28.8621 13.4724C29.9136 14.4818 31.3651 15.1072 32.9635 15.1072C34.3306 15.1072 35.5047 14.7498 36.4235 14.1301C37.2759 13.556 37.9092 12.7538 38.2731 11.7996H35.374C35.1227 12.1018 34.8131 12.3318 34.4653 12.4972C33.9948 12.7215 33.458 12.8261 32.9172 12.8261C32.0306 12.8261 31.2224 12.4649 30.6414 11.8623C30.0764 11.2768 29.7266 10.4632 29.7266 9.53172C29.7266 8.58695 30.0784 7.75053 30.6474 7.14603C31.2284 6.52632 32.0346 6.15183 32.9192 6.15183C33.6249 6.15183 34.2843 6.34763 34.8171 6.71071C35.3358 7.06239 35.7359 7.57184 35.945 8.21246L36.0073 8.40256H31.3651C31.3752 8.92342 31.5983 9.44238 31.9522 9.80166C32.3422 10.1952 32.9031 10.4062 33.5183 10.4461L33.5988 10.448Z" fill="white"/>
<path fill-rule="evenodd" clip-rule="evenodd" d="M18.0923 14.8296H20.0083C21.5704 14.8296 22.9315 14.2403 23.9086 13.2841C24.9037 12.309 25.5009 10.9517 25.5009 9.44423C25.5009 7.89875 24.8857 6.48254 23.8281 5.46934C22.8149 4.49605 21.3915 3.88965 19.7167 3.88965C18.044 3.88965 16.6166 4.50175 15.5993 5.49215C14.5478 6.51676 13.9326 7.94818 13.9326 9.52977V19.0003H16.5925V9.52977C16.5925 8.64963 16.9423 7.84743 17.5052 7.26574C18.0702 6.68214 18.8522 6.31906 19.7167 6.31906C20.5812 6.31906 21.3613 6.67074 21.9283 7.23722C22.4932 7.80371 22.841 8.585 22.841 9.44232C22.841 10.2863 22.4952 11.022 21.9262 11.5486C21.3512 12.0789 20.5511 12.3964 19.6504 12.3964H18.0963V14.8296H18.0923Z" fill="white"/>
<path fill-rule="evenodd" clip-rule="evenodd" d="M98.9698 10.448H104.002C104.03 10.1704 104.042 9.90051 104.042 9.63817C104.042 7.92542 103.475 6.56434 102.563 5.60056C101.652 4.63677 100.393 4.06459 99.01 3.92582C98.7909 3.90301 98.5657 3.8916 98.3385 3.8916C96.7382 3.8916 95.2866 4.52462 94.2352 5.54353C93.1837 6.56434 92.5303 7.97484 92.5303 9.53172C92.5303 11.0677 93.1837 12.4611 94.2352 13.4724C95.2866 14.4818 96.7382 15.1072 98.3365 15.1072C99.7036 15.1072 100.878 14.7498 101.797 14.1301C102.649 13.5541 103.282 12.7519 103.646 11.7996H100.747C100.498 12.1018 100.186 12.3318 99.8383 12.4972C99.3679 12.7215 98.8311 12.8261 98.2903 12.8261C97.4037 12.8261 96.5954 12.4649 96.0144 11.8623C95.4495 11.2768 95.0997 10.4632 95.0997 9.53172C95.0997 8.58695 95.4535 7.75053 96.0205 7.14603C96.6015 6.52632 97.4077 6.15183 98.2923 6.15183C98.998 6.15183 99.6574 6.34763 100.19 6.71071C100.709 7.06239 101.109 7.57374 101.318 8.21246L101.38 8.40256H96.7382C96.7543 8.92342 96.9694 9.42717 97.3212 9.78645C97.7092 10.1799 98.2661 10.4043 98.8894 10.4461L98.9698 10.448Z" fill="white"/>
<path fill-rule="evenodd" clip-rule="evenodd" d="M60.4605 0.307617H59.0994C58.7254 0.307617 58.3857 0.452089 58.1384 0.685906C57.8911 0.919723 57.7383 1.24098 57.7383 1.59456V2.8815H59.0994C59.4733 2.8815 59.8131 2.73703 60.0604 2.50321C60.3077 2.2694 60.4605 1.94814 60.4605 1.59456V0.307617Z" fill="white"/>
</svg>
