<svg width="30" height="30" viewBox="0 0 30 30" fill="none" xmlns="http://www.w3.org/2000/svg">
<path d="M6.48633 15.4852C7.05297 14.8981 7.60189 14.3292 8.15652 13.7544C9.51564 14.9962 10.8686 16.2324 12.2406 17.4861C15.0645 13.023 18.6583 9.38966 22.9471 6.48633C23.1302 6.98332 23.3283 7.54785 23.5134 8.0508C23.4712 8.09206 23.4401 8.12018 23.4116 8.15077C22.764 8.84915 22.1062 9.53747 21.472 10.2488C20.4462 11.3994 19.477 12.6007 18.5797 13.8638C17.5992 15.244 16.6823 16.6697 15.7979 18.1181C14.9421 19.52 14.1173 20.9416 13.3311 22.3874C13.275 22.4905 13.2183 22.5933 13.1583 22.7025C10.9348 20.2974 8.71273 17.8936 6.48633 15.4852Z" fill="#528CF3"/>
</svg>
