<svg width="100" height="110" viewBox="0 0 100 110" fill="none" xmlns="http://www.w3.org/2000/svg">
<path d="M0 34.7136V75.2864C0 80.4364 2.76826 85.2074 7.27656 87.7824L42.7234 108.069C47.2317 110.644 52.7814 110.644 57.2766 108.069L92.7234 87.7824C97.2317 85.2074 100 80.4364 100 75.2864V34.7136C100 29.5636 97.2317 24.7926 92.7234 22.2176L57.2766 1.93126C52.7683 -0.643753 47.2186 -0.643753 42.7234 1.93126L7.27656 22.2176C2.76826 24.7926 0 29.5636 0 34.7136Z" fill="#528CF3" fill-opacity="0.1"/>
<path d="M5 36.8734V74.1266C5 78.8552 7.51911 83.2358 11.6217 85.6002L43.8783 104.227C47.9809 106.591 53.0311 106.591 57.1217 104.227L89.3783 85.6002C93.4809 83.2358 96 78.8552 96 74.1266V36.8734C96 32.1448 93.4809 27.7642 89.3783 25.3998L57.1217 6.77325C53.0191 4.40892 47.9689 4.40892 43.8783 6.77325L11.6217 25.3998C7.51911 27.7642 5 32.1448 5 36.8734Z" fill="#528CF3" fill-opacity="0.3"/>
<path d="M10 38.7176V72.2824C10 76.5428 12.2423 80.4897 15.894 82.62L44.606 99.4023C48.2577 101.533 52.753 101.533 56.394 99.4023L85.106 82.62C88.7577 80.4897 91 76.5428 91 72.2824V38.7176C91 34.4572 88.7577 30.5103 85.106 28.38L56.394 11.5977C52.7423 9.46744 48.247 9.46744 44.606 11.5977L15.894 28.38C12.2423 30.5103 10 34.4572 10 38.7176Z" fill="#528CF3"/>
<g clip-path="url(#clip0_2720_184)">
<path d="M77.0405 66.93C77.0405 51.94 66.5105 33.7 53.5305 26.21C46.9405 22.4 40.9805 22.1 36.7105 24.69V24.68L30.4005 28.32L31.9905 30.05C30.7305 32.65 30.0205 35.92 30.0205 39.78C30.0205 54.77 40.5505 73.01 53.5305 80.5C57.1405 82.59 60.5705 83.62 63.6205 83.7L64.0105 85.68L70.1505 82.15C74.4105 79.7 77.0405 74.43 77.0405 66.93Z" fill="#DAE5F8"/>
<path d="M70.4604 70.73C70.4604 85.72 59.9304 91.8 46.9504 84.3C33.9704 76.81 23.4404 58.58 23.4404 43.58C23.4404 28.59 33.9704 22.51 46.9504 30C59.9404 37.5 70.4604 55.74 70.4604 70.73Z" fill="white"/>
<path d="M67.6304 69.09C67.6304 55.9 58.3704 39.87 46.9504 33.28C39.1304 28.77 32.3304 29.85 28.8204 35.2L23.4404 43.37L26.4904 48.8C27.7604 59.63 34.4904 71.55 43.1204 78.4L46.4404 84.31L56.6104 83.84C63.1604 83.62 67.6304 78.25 67.6304 69.09Z" fill="#DAE5F8"/>
<path d="M66.4604 69.1C66.4604 70.4 66.3704 71.62 66.1804 72.77L56.3604 75.21C56.4204 74.81 56.4704 74.4 56.5004 73.98L64.7204 71.94C64.9104 70.8 65.0004 69.58 65.0004 68.27C65.0004 67.64 64.9804 66.99 64.9304 66.34L66.2803 66C66.4003 67.04 66.4604 68.08 66.4604 69.1Z" fill="#81A1CC"/>
<path d="M65.0101 68.26C65.0101 69.56 64.9201 70.78 64.7301 71.93L56.5101 73.97C56.5701 73.35 56.5901 72.71 56.5901 72.05C56.5901 70.88 56.5001 69.68 56.3301 68.47L64.9401 66.33C64.9801 66.98 65.0101 67.62 65.0101 68.26Z" fill="#666666"/>
<path d="M48.9197 35.9601L48.1297 36.7701C47.5497 36.3701 46.9597 36.0001 46.3597 35.6501C45.2197 35.0001 44.0897 34.4601 42.9797 34.0401L36.9097 40.2601C36.5997 40.1201 36.2797 39.9801 35.9697 39.8601L42.9697 32.6801C44.0797 33.1001 45.2097 33.6401 46.3497 34.3001C47.2297 34.8001 48.0897 35.3501 48.9197 35.9601Z" fill="#81A1CC"/>
<path d="M48.1299 36.77L41.7999 43.26C40.8199 42.5 39.8199 41.82 38.7899 41.22C38.1599 40.85 37.5299 40.54 36.9199 40.26L42.9899 34.04C44.0999 34.46 45.2299 35 46.3699 35.65C46.9599 36 47.5499 36.37 48.1299 36.77Z" fill="#666666"/>
<path d="M55.42 72.04C55.42 83.01 47.71 87.46 38.21 81.98C28.71 76.49 21 63.14 21 52.17C21 41.2 28.71 36.75 38.21 42.24C47.71 47.72 55.42 61.06 55.42 72.04Z" fill="white"/>
<path d="M47.6396 67.55C47.6396 70.57 46.5696 72.69 44.8496 73.67L45.0896 74.08C46.8796 73.06 47.9796 70.87 47.9796 67.75C47.9796 64.62 46.8696 61.15 45.0896 58.08L44.8496 58.22C46.5696 61.18 47.6396 64.53 47.6396 67.55Z" fill="#575757"/>
<path d="M49.8904 68.85C49.8904 72.58 48.5704 75.21 46.4404 76.42L46.6804 76.83C48.8704 75.58 50.2304 72.89 50.2304 69.04C50.2304 65.2 48.8704 60.93 46.6804 57.15L46.4404 57.29C48.5704 60.97 49.8904 65.11 49.8904 68.85Z" fill="#575757"/>
<path d="M52.1796 70.17C52.1796 74.63 50.5996 77.76 48.0596 79.22L48.2996 79.63C50.9096 78.14 52.5196 74.93 52.5196 70.36C52.5196 65.79 50.8996 60.72 48.2996 56.22L48.0596 56.36C50.5996 60.75 52.1796 65.71 52.1796 70.17Z" fill="#575757"/>
<path d="M43.9402 65.41C43.9402 61.76 41.3802 57.32 38.2102 55.49C36.5602 54.54 35.0802 54.49 34.0402 55.17L32.9902 55.86L33.1402 56.11C32.7302 56.79 32.4902 57.69 32.4902 58.79C32.4902 62.44 35.0602 66.89 38.2202 68.71C39.2702 69.32 40.2502 69.55 41.1002 69.47L41.2802 69.77L42.3902 69.02C43.3402 68.41 43.9402 67.16 43.9402 65.41Z" fill="#B4CAED"/>
<path d="M42.8204 66.15C42.8204 69.8 40.2604 71.28 37.0904 69.46C33.9304 67.63 31.3604 63.19 31.3604 59.54C31.3604 55.89 33.9204 54.41 37.0904 56.23C40.2504 58.06 42.8204 62.5 42.8204 66.15Z" fill="#DAE5F8"/>
<path d="M45.5802 67.47L44.7402 66.98V64.76L45.5802 65.25V67.47Z" fill="#9DE368"/>
<path d="M30.2403 57.5C30.2403 56.17 29.3003 54.55 28.1503 53.88C27.5803 53.55 27.0703 53.52 26.7003 53.72L26.5403 53.81L26.5503 53.82C26.2503 54.06 26.0703 54.49 26.0703 55.08C26.0703 56.41 27.0103 58.04 28.1603 58.7C28.6703 58.99 29.1303 59.05 29.5003 58.92L29.5103 58.93L29.6503 58.85C30.0103 58.64 30.2403 58.17 30.2403 57.5Z" fill="#050505"/>
<path d="M30.0999 57.58C30.0999 58.91 29.1699 59.45 28.0099 58.79C26.8599 58.12 25.9199 56.5 25.9199 55.17C25.9199 53.84 26.8599 53.3 28.0099 53.96C29.1699 54.63 30.0999 56.25 30.0999 57.58Z" fill="#383838"/>
<path d="M28.0203 54.1801C27.0803 53.6401 26.3003 53.9701 26.1503 54.9201L26.0303 55.7401L26.2503 56.1201C26.4403 56.8201 26.8503 57.5301 27.3603 58.0501L27.5703 58.4201L28.3403 58.7201C29.2403 59.0601 29.9203 58.5601 29.9203 57.4701C29.9203 56.2601 29.0703 54.7901 28.0203 54.1801Z" fill="#EB5C44"/>
<path d="M28.7 57.5401C28.7 58.4001 28.1 58.7501 27.35 58.3201C26.61 57.8901 26 56.8401 26 55.9801C26 55.1201 26.6 54.7701 27.35 55.2001C28.1 55.6301 28.7 56.6801 28.7 57.5401Z" fill="#FF836F"/>
</g>
<defs>
<clipPath id="clip0_2720_184">
<rect width="56.04" height="64.52" fill="white" transform="translate(21 23)"/>
</clipPath>
</defs>
</svg>
