<svg width="100" height="110" viewBox="0 0 100 110" fill="none" xmlns="http://www.w3.org/2000/svg">
<path d="M0 34.7136V75.2864C0 80.4364 2.76826 85.2074 7.27656 87.7824L42.7234 108.069C47.2317 110.644 52.7814 110.644 57.2766 108.069L92.7234 87.7824C97.2317 85.2074 100 80.4364 100 75.2864V34.7136C100 29.5636 97.2317 24.7926 92.7234 22.2176L57.2766 1.93126C52.7683 -0.643753 47.2186 -0.643753 42.7234 1.93126L7.27656 22.2176C2.76826 24.7926 0 29.5636 0 34.7136Z" fill="#528CF3" fill-opacity="0.1"/>
<path d="M5 36.8734V74.1266C5 78.8552 7.51911 83.2358 11.6217 85.6002L43.8783 104.227C47.9809 106.591 53.0311 106.591 57.1217 104.227L89.3783 85.6002C93.4809 83.2358 96 78.8552 96 74.1266V36.8734C96 32.1448 93.4809 27.7642 89.3783 25.3998L57.1217 6.77325C53.0191 4.40892 47.9689 4.40892 43.8783 6.77325L11.6217 25.3998C7.51911 27.7642 5 32.1448 5 36.8734Z" fill="#528CF3" fill-opacity="0.3"/>
<path d="M10 38.7176V72.2824C10 76.5428 12.2423 80.4897 15.894 82.62L44.606 99.4023C48.2577 101.533 52.753 101.533 56.394 99.4023L85.106 82.62C88.7577 80.4897 91 76.5428 91 72.2824V38.7176C91 34.4572 88.7577 30.5103 85.106 28.38L56.394 11.5977C52.7423 9.46744 48.247 9.46744 44.606 11.5977L15.894 28.38C12.2423 30.5103 10 34.4572 10 38.7176Z" fill="#528CF3"/>
<g clip-path="url(#clip0_2720_185)">
<path d="M28.8506 28.11L31.3906 32.51C30.9706 34.33 30.7306 36.36 30.7406 38.58C30.7406 53.99 41.5606 72.73 54.9106 80.44C56.8306 81.55 58.7006 82.36 60.4906 82.91L63.0306 87.31L70.8306 82.81C75.2106 80.28 77.9106 74.87 77.9106 67.16C77.9106 51.75 67.0906 33.01 53.7406 25.3C47.0706 21.45 41.0306 21.08 36.6506 23.61L28.8506 28.11Z" fill="#B4CAED"/>
<path d="M45.9405 29.81C59.2805 37.52 70.1105 56.26 70.1005 71.66C70.1005 87.07 59.2805 93.32 45.9405 85.61C32.5905 77.91 21.7705 59.17 21.7705 43.76C21.7705 28.34 32.5905 22.1 45.9405 29.81Z" fill="white"/>
<path d="M31.8711 34.88L29.8111 36.07L29.9911 36.37C27.7011 38.67 26.3311 42.32 26.3311 47.14C26.3311 59.23 34.8211 73.93 45.2811 79.97C49.4511 82.38 53.3011 83.02 56.4411 82.19L56.6211 82.49L58.6911 81.3C62.1111 79.32 64.2411 75.07 64.2411 69.03C64.2411 56.94 55.7511 42.25 45.2911 36.21C40.0411 33.18 35.3011 32.9 31.8711 34.88Z" fill="#383838"/>
<path d="M43.2107 37.4C53.6707 43.44 62.1607 58.14 62.1607 70.22C62.1607 82.3 53.6707 87.2 43.2007 81.16C32.7407 75.13 24.2607 60.43 24.2607 48.34C24.2607 36.26 32.7407 31.36 43.2107 37.4Z" fill="#808080"/>
<path d="M43.3109 38.56C53.1909 44.26 61.2109 58.14 61.2109 69.56C61.2109 80.98 53.2009 85.6 43.3209 79.9C33.4309 74.19 25.4209 60.31 25.4209 48.9C25.4209 37.48 33.4309 32.85 43.3109 38.56Z" fill="#295E87"/>
<path d="M43.1707 39.4C52.6907 44.9 60.4107 58.26 60.4107 69.26C60.4107 80.25 52.6907 84.71 43.1707 79.22C33.6507 73.72 25.9307 60.35 25.9307 49.36C25.9407 38.36 33.6507 33.9 43.1707 39.4Z" fill="#383838"/>
<path d="M40.58 43.92C48.65 48.58 55.2 59.92 55.2 69.24C55.2 78.56 48.65 82.34 40.58 77.68C32.5 73.01 25.96 61.68 25.96 52.35C25.96 43.04 32.5 39.26 40.58 43.92Z" fill="#808080"/>
<path d="M33.8201 49.1C33.8201 49.1 49.1701 56.24 47.3401 72.52C40.8801 76.25 32.6101 74.04 28.8701 67.57C25.1401 61.1 27.3501 52.83 33.8201 49.1Z" fill="#575757"/>
<path d="M40.5805 49.77C45.8605 52.82 50.1405 60.23 50.1405 66.32C50.1405 72.42 45.8605 74.89 40.5805 71.84C35.3005 68.79 31.0205 61.38 31.0205 55.28C31.0205 49.19 35.3005 46.72 40.5805 49.77Z" fill="#575757"/>
<path d="M43.2706 68.95C41.3106 65.64 36.6206 63 32.7606 63.03C30.8806 63.06 29.5606 63.72 28.9206 64.79L26.8506 68.46L27.6106 68.86C27.7106 69.49 27.9606 70.14 28.3706 70.83C30.3306 74.13 35.0406 76.77 38.8806 76.73C39.8706 76.71 40.7006 76.54 41.3606 76.19L41.8706 76.45L43.8706 72.87C44.3206 71.81 44.1406 70.43 43.2706 68.95Z" fill="#383838"/>
<path d="M41.3703 72.3C43.3203 75.59 41.7903 78.31 37.9503 78.37C34.1103 78.4 29.4103 75.75 27.4703 72.47C25.5003 69.16 27.0203 66.45 30.8403 66.4C34.7003 66.36 39.4103 68.99 41.3703 72.3Z" fill="#666666"/>
<path d="M28.8004 72.72C30.3504 75.34 34.0904 77.43 37.1504 77.42C39.1804 77.38 40.3904 76.43 40.5304 75.03C39.9604 75.49 39.1104 75.76 38.0404 75.78C34.9604 75.82 31.2304 73.72 29.6704 71.08C29.1404 70.19 28.9304 69.37 28.9904 68.66C27.9304 69.49 27.7904 71.02 28.8004 72.72Z" fill="#050505"/>
<path d="M29.6704 71.08C31.2304 73.72 34.9604 75.82 38.0404 75.78C39.1004 75.76 39.9604 75.49 40.5304 75.03C40.6204 74.31 40.4004 73.48 39.8704 72.59C38.3004 69.95 34.5604 67.85 31.4904 67.9C30.4104 67.89 29.5904 68.19 28.9904 68.67C28.9304 69.37 29.1404 70.19 29.6704 71.08Z" fill="#003552"/>
<path d="M34.1301 69.61C33.1001 69.61 32.6901 70.35 33.2201 71.24C33.7501 72.13 35.0101 72.83 36.0401 72.82C37.0801 72.8 37.4801 72.08 36.9601 71.19C36.4201 70.3 35.1701 69.59 34.1301 69.61Z" fill="#EB5C44"/>
<path d="M33.2398 68.48C33.4798 68.48 33.6098 68.34 33.5798 68.15C33.1598 68.05 32.7498 67.97 32.3398 67.93C32.3498 67.95 32.3598 67.97 32.3698 67.99C32.5398 68.27 32.9298 68.48 33.2398 68.48Z" fill="#EB5C44"/>
<path d="M36.7202 74.34C36.4002 74.34 36.2702 74.56 36.4402 74.84C36.6002 75.11 36.9902 75.33 37.3102 75.33C37.6202 75.33 37.7502 75.1 37.5902 74.83C37.4202 74.55 37.0202 74.33 36.7202 74.34Z" fill="#EB5C44"/>
<path d="M36.6105 69.44C36.3505 69.28 36.0905 69.13 35.8105 69C35.8805 69.11 36.0105 69.22 36.1605 69.3C36.3105 69.39 36.4705 69.44 36.6105 69.44Z" fill="#EB5C44"/>
<path d="M32.9905 73.52C32.8905 73.72 33.0705 74.03 33.4005 74.22C33.7505 74.4 34.1005 74.41 34.2105 74.21C34.3205 74.01 34.1405 73.7 33.8005 73.52C33.4605 73.32 33.1005 73.32 32.9905 73.52Z" fill="#EB5C44"/>
<path d="M38.3804 71.38C38.5404 71.65 38.9204 71.86 39.2504 71.86C39.2904 71.86 39.3304 71.85 39.3604 71.85C39.1104 71.53 38.8204 71.21 38.5104 70.91C38.3104 70.97 38.2504 71.15 38.3804 71.38Z" fill="#EB5C44"/>
<path d="M30.7099 70.97C30.3899 70.96 30.2699 71.19 30.4299 71.46C30.5899 71.74 30.9799 71.95 31.2999 71.95C31.6199 71.95 31.7399 71.72 31.5799 71.45C31.4099 71.18 31.0299 70.96 30.7099 70.97Z" fill="#EB5C44"/>
<path d="M38.6298 73.45C38.5098 73.65 38.6998 73.95 39.0398 74.14C39.3698 74.34 39.7298 74.32 39.8498 74.13C39.9498 73.94 39.7698 73.62 39.4298 73.43C39.0898 73.25 38.7198 73.26 38.6298 73.45Z" fill="#EB5C44"/>
<path d="M30.1202 68.68C30.0102 68.87 30.2002 69.19 30.5302 69.38C30.8802 69.57 31.2302 69.56 31.3402 69.37C31.4602 69.17 31.2802 68.86 30.9302 68.68C30.5902 68.48 30.2302 68.48 30.1202 68.68Z" fill="#EB5C44"/>
<path opacity="0.6" d="M30.6604 37.3C18.5504 44.29 14.4104 59.78 21.4004 71.88C28.3904 83.98 43.8704 88.14 55.9704 81.15C59.2104 79.28 61.2104 75.27 61.2104 69.56C61.2104 58.15 53.2004 44.27 43.3104 38.56C38.3704 35.71 33.9004 35.44 30.6604 37.3Z" fill="#517FA2"/>
<path opacity="0.3" d="M28.2 49.81C28.68 52.6 27.31 56.32 25.14 58.13C22.97 59.94 20.82 59.15 20.34 56.36C19.86 53.57 21.23 49.85 23.4 48.04C25.56 46.23 27.71 47.02 28.2 49.81Z" fill="white"/>
</g>
<defs>
<clipPath id="clip0_2720_185">
<rect width="59.91" height="66.91" fill="white" transform="translate(18 22)"/>
</clipPath>
</defs>
</svg>
