<svg width="100" height="110" viewBox="0 0 100 110" fill="none" xmlns="http://www.w3.org/2000/svg">
<path d="M0 34.7136V75.2864C0 80.4364 2.76826 85.2074 7.27656 87.7824L42.7234 108.069C47.2317 110.644 52.7814 110.644 57.2766 108.069L92.7234 87.7824C97.2317 85.2074 100 80.4364 100 75.2864V34.7136C100 29.5636 97.2317 24.7926 92.7234 22.2176L57.2766 1.93126C52.7683 -0.643753 47.2186 -0.643753 42.7234 1.93126L7.27656 22.2176C2.76826 24.7926 0 29.5636 0 34.7136Z" fill="#528CF3" fill-opacity="0.1"/>
<path d="M5 36.8734V74.1266C5 78.8552 7.51911 83.2358 11.6217 85.6002L43.8783 104.227C47.9809 106.591 53.0311 106.591 57.1217 104.227L89.3783 85.6002C93.4809 83.2358 96 78.8552 96 74.1266V36.8734C96 32.1448 93.4809 27.7642 89.3783 25.3998L57.1217 6.77325C53.0191 4.40892 47.9689 4.40892 43.8783 6.77325L11.6217 25.3998C7.51911 27.7642 5 32.1448 5 36.8734Z" fill="#528CF3" fill-opacity="0.3"/>
<path d="M10 38.7176V72.2824C10 76.5428 12.2423 80.4897 15.894 82.62L44.606 99.4023C48.2577 101.533 52.753 101.533 56.394 99.4023L85.106 82.62C88.7577 80.4897 91 76.5428 91 72.2824V38.7176C91 34.4572 88.7577 30.5103 85.106 28.38L56.394 11.5977C52.7423 9.46744 48.247 9.46744 44.606 11.5977L15.894 28.38C12.2423 30.5103 10 34.4572 10 38.7176Z" fill="#528CF3"/>
<g clip-path="url(#clip0_2720_183)">
<path d="M68.0471 25.612L34.9459 6.10192C34.0796 5.59343 33.3184 5.59343 32.7802 5.98149V5.96811L29.709 7.77459L30.8902 15.5224L68.9527 36.0762L71.0002 30.7772C71.0002 28.877 69.6746 26.5487 68.0471 25.612Z" fill="#DAE5F8"/>
<path d="M61.0903 13.4081C60.0666 12.806 59.2266 13.2877 59.2266 14.5054C59.2266 15.7097 60.0666 17.1817 61.0903 17.7972C62.1272 18.3994 62.9541 17.9043 62.9541 16.7C62.9541 15.4822 62.1141 14.0103 61.0903 13.4081Z" fill="#9DE368"/>
<path d="M61.0907 9.58111C59.3976 8.5775 57.6651 8.43031 56.3526 9.16628C56.2213 9.24657 56.1426 9.42053 56.1426 9.63463C56.1426 9.84873 56.2082 10.103 56.3395 10.3305C56.6151 10.8256 57.0613 11.0798 57.337 10.9326C58.3738 10.3438 59.7782 10.4643 61.0907 11.2404C62.5607 12.0968 63.9126 13.5821 64.9232 15.4288C65.1857 15.9105 65.6451 16.1915 65.9207 16.0443C66.1963 15.8971 66.2095 15.3752 65.947 14.8801C64.6607 12.5518 62.9413 10.6784 61.0907 9.58111Z" fill="#9DE368"/>
<path d="M61.1561 5.51312C58.8593 4.1616 56.2868 3.9475 54.4493 4.96449C54.3049 5.04477 54.2393 5.21873 54.2393 5.43283C54.2393 5.63355 54.3049 5.8878 54.4361 6.12866C54.7118 6.62378 55.1449 6.8914 55.4336 6.73083C57.0218 5.86104 59.2136 6.02161 61.1561 7.15903C63.2168 8.37673 65.3299 10.6917 66.7999 13.3546C67.0755 13.8497 67.5086 14.1173 67.7974 13.9701C68.0861 13.8096 68.0861 13.2877 67.8236 12.806C66.0649 9.63458 63.6368 6.97169 61.1561 5.51312Z" fill="#9DE368"/>
<path d="M69.6744 10.772C67.6269 7.15903 64.1487 3.50592 61.025 1.65929C58.0194 -0.107054 54.6856 -0.495113 52.52 0.655685C52.3756 0.735973 52.2969 0.909931 52.2969 1.12403C52.2969 1.32475 52.3625 1.56562 52.4937 1.80648C52.7694 2.28821 53.2156 2.56922 53.4912 2.40864C55.4075 1.39166 58.3737 1.73958 61.025 3.29181C63.8075 4.92434 66.8787 8.16263 68.6769 11.334C68.9525 11.8291 69.3987 12.0834 69.6744 11.9228C69.95 11.7756 69.95 11.2537 69.6744 10.772Z" fill="#9DE368"/>
<path d="M67.2464 100.106L35.9826 81.6933C34.3551 80.7432 33.0426 78.4282 33.0558 76.5147V53.1107L71.0001 30.7772V100.093C71.0001 101.056 70.672 101.725 70.1339 102.02L67.1414 103.813L67.2464 100.106Z" fill="#B4CAED"/>
<path d="M65.0675 103.599L31.94 84.1019C30.3125 83.1519 29 80.8235 29 78.9233V9.62123C29 7.69432 30.3125 6.9182 31.94 7.89504L65.0675 27.3917C66.695 28.3552 67.9944 30.6567 67.9944 32.5703V101.886C67.9944 103.773 66.6819 104.549 65.0675 103.599Z" fill="white"/>
<path d="M29 71.1354V13.8631L67.9944 36.8121V94.0844L29 71.1354Z" fill="#295E87"/>
<path d="M58.9779 58.9048L55.2635 53.0437V48.4941C55.2635 48.3067 55.1322 48.0659 54.9616 47.9722L52.5597 46.5538C52.3891 46.4601 52.2579 46.5404 52.2579 46.7277V48.3067L48.6879 42.6732C48.5829 42.4992 48.4122 42.4055 48.3072 42.4457L38.0172 46.5805C37.9254 46.6207 37.886 46.7545 37.9254 46.9151C37.9647 47.0756 38.0829 47.2362 38.201 47.3031L40.3929 48.5877V61.6881C40.3929 61.8754 40.5241 62.1163 40.6947 62.21L56.3004 71.3896C56.4579 71.4832 56.6022 71.403 56.6022 71.2156V58.1153L58.7941 59.3999C58.9122 59.4668 59.0304 59.4534 59.0697 59.333C59.1091 59.2393 59.0697 59.052 58.9779 58.9048ZM56.3004 57.2455C56.1429 57.1518 55.9985 57.2321 55.9985 57.4194V70.5198L40.9966 61.6881V48.5877C40.9966 48.4004 40.8654 48.1595 40.6947 48.0659L39.0147 47.0756L48.491 43.2753L52.3629 49.3906C52.4547 49.5244 52.5729 49.6181 52.6779 49.6315C52.7829 49.6315 52.8485 49.5512 52.8485 49.4174V47.4369L54.6597 48.5074V52.8698C54.6597 52.9768 54.6991 53.0972 54.7647 53.2043L57.9541 58.2491L56.3004 57.2455Z" fill="#9DE368"/>
<path d="M48.4909 53.6994C47.454 53.0972 46.614 53.579 46.6271 54.7967C46.6271 55.6932 47.0865 56.737 47.7427 57.4729L47.3752 61.4071L49.6196 62.7318L49.2521 58.3561C49.9084 58.4096 50.3677 57.9011 50.3677 57.0046C50.3677 55.7869 49.5277 54.3016 48.4909 53.6994Z" fill="#DAE5F8"/>
<path d="M58.9774 79.3247L42.873 69.8775V73.5039L58.9774 82.9645C59.8305 83.4596 60.513 83.0581 60.513 82.0545C60.513 81.0509 59.8305 79.8332 58.9774 79.3247Z" fill="#659EC9"/>
<path d="M42.8727 69.8775L37.8984 66.947C37.0452 66.4385 36.3496 66.8533 36.3496 67.8569C36.3496 68.8605 37.0452 70.0782 37.8984 70.5867L42.8727 73.5172C43.7259 74.0123 44.4084 73.6109 44.4084 72.6073C44.4084 71.6037 43.7259 70.386 42.8727 69.8775Z" fill="#9DE368"/>
<path d="M32.2549 23.9259L32.7536 24.2203V25.2239L33.528 25.6789V24.6753L34.0399 24.9697V27.5924L33.528 27.298V26.2007L32.7536 25.7458V26.843L32.2549 26.5487V23.9259Z" fill="#DAE5F8"/>
<path d="M34.4463 26.5085C34.4463 25.6521 34.8532 25.3978 35.4569 25.7591C36.0607 26.107 36.4675 26.843 36.4675 27.6994C36.4675 28.5558 36.0607 28.8235 35.4569 28.4755C34.8663 28.1276 34.4463 27.3649 34.4463 26.5085ZM35.9557 27.405C35.9557 26.8832 35.7588 26.455 35.4569 26.281C35.155 26.107 34.9582 26.3078 34.9582 26.8296C34.9582 27.3515 35.155 27.8065 35.4569 27.9804C35.7719 28.1544 35.9557 27.9269 35.9557 27.405Z" fill="#DAE5F8"/>
<path d="M36.875 28.0474V26.6423L37.3869 26.9367V28.4087C37.3869 28.9172 37.5181 29.1848 37.7675 29.332C38.0169 29.4792 38.1612 29.3855 38.1612 28.877V27.4051L38.6469 27.6861V29.0911C38.6469 29.9743 38.345 30.175 37.7675 29.8405C37.19 29.4926 36.875 28.9305 36.875 28.0474Z" fill="#DAE5F8"/>
<path d="M38.9746 30.175L39.2634 29.9341C39.4209 30.1884 39.6309 30.4292 39.8146 30.5363C40.0246 30.6567 40.1296 30.6166 40.1296 30.4694C40.1296 30.3088 39.9984 30.175 39.8146 29.9609L39.5259 29.6397C39.3027 29.3989 39.0796 29.0376 39.0796 28.6629C39.0796 28.2347 39.4077 28.0741 39.8671 28.3551C40.1296 28.5023 40.3921 28.7833 40.589 29.1178L40.3265 29.3453C40.1821 29.1312 40.0377 28.9707 39.8671 28.8636C39.6965 28.7565 39.5784 28.7833 39.5784 28.9305C39.5784 29.0911 39.7227 29.2383 39.9196 29.439L40.2084 29.7468C40.484 30.0412 40.6546 30.3489 40.6546 30.7236C40.6546 31.1518 40.3527 31.3525 39.8146 31.0448C39.5127 30.8708 39.2109 30.5497 38.9746 30.175Z" fill="#DAE5F8"/>
<path d="M41.0225 29.0777L42.4137 29.894V30.3891L41.5212 29.8672V30.3891L42.2825 30.8307V31.3258L41.5212 30.8842V31.4863L42.4531 32.035V32.5301L41.0225 31.6871V29.0777Z" fill="#DAE5F8"/>
<path d="M43.5684 30.5764L44.0671 30.8708V33.4936L43.5684 33.1992V30.5764Z" fill="#DAE5F8"/>
<path d="M44.4473 33.3999L44.736 33.159C44.8935 33.4133 45.1035 33.6541 45.2873 33.7612C45.4973 33.8816 45.6023 33.8549 45.6023 33.6943C45.6023 33.5337 45.471 33.3999 45.2873 33.1858L44.9985 32.8646C44.7754 32.6238 44.5523 32.2625 44.5523 31.8878C44.5523 31.4596 44.8804 31.299 45.3398 31.58C45.6023 31.7272 45.8648 32.0082 46.0616 32.3428L45.7991 32.5702C45.6548 32.3561 45.5104 32.1956 45.3398 32.0885C45.1691 31.9815 45.051 32.0082 45.051 32.1554C45.051 32.316 45.1954 32.4632 45.3923 32.6639L45.681 32.9717C45.9566 33.2527 46.1273 33.5738 46.1273 33.9485C46.1273 34.3767 45.8254 34.5774 45.2873 34.2697C44.9854 34.0823 44.6835 33.7746 44.4473 33.3999Z" fill="#DAE5F8"/>
<path d="M47.1777 32.704L47.939 33.159C48.4246 33.4534 48.8184 33.895 48.8184 34.5239C48.8184 35.1394 48.4246 35.1796 47.9521 34.8986L47.6765 34.738V35.6212L47.1777 35.3268V32.704ZM47.9259 34.4035C48.2015 34.564 48.3327 34.4971 48.3327 34.2295C48.3327 33.9619 48.1884 33.7612 47.9127 33.6006L47.6765 33.4668V34.2563L47.9259 34.4035Z" fill="#DAE5F8"/>
<path d="M49.2119 33.895L50.0125 34.3634C50.485 34.6444 50.8657 35.0592 50.8657 35.6881C50.8657 36.0762 50.7082 36.2234 50.4719 36.21L50.9838 37.5615L50.4194 37.227L49.9863 36.036L49.7107 35.8755V36.8255L49.2119 36.5311V33.895ZM49.9732 35.5543C50.2357 35.7149 50.38 35.6614 50.38 35.4071C50.38 35.1529 50.2357 34.9789 49.9732 34.8183L49.7107 34.6711V35.4071L49.9732 35.5543Z" fill="#DAE5F8"/>
<path d="M51.1943 36.3705C51.1943 35.5141 51.6012 35.2599 52.205 35.6212C52.8087 35.9691 53.2156 36.7051 53.2156 37.5615C53.2156 38.4179 52.8087 38.6855 52.205 38.3376C51.6012 37.9763 51.1943 37.2269 51.1943 36.3705ZM52.7037 37.2537C52.7037 36.7318 52.5068 36.3036 52.205 36.1297C51.9031 35.9557 51.7062 36.1564 51.7062 36.6783C51.7062 37.2002 51.9031 37.6552 52.205 37.8291C52.5068 38.0031 52.7037 37.7756 52.7037 37.2537Z" fill="#DAE5F8"/>
<path d="M53.9636 37.2002L53.3467 36.8389V36.3438L55.0792 37.3608V37.8559L54.4623 37.4946V39.6222L53.9504 39.3279V37.2002H53.9636Z" fill="#DAE5F8"/>
<path d="M55.434 37.5615L56.8253 38.3778V38.8729L55.9328 38.351V38.8729L56.694 39.3145V39.8096L55.9328 39.368V39.9702L56.8515 40.5188V41.0139L55.4209 40.1709V37.5615H55.434Z" fill="#DAE5F8"/>
<path d="M57.1924 39.93C57.1924 39.0602 57.678 38.8461 58.2424 39.1807C58.5311 39.3546 58.7674 39.649 58.9118 39.9166L58.6493 40.1441C58.5311 39.9568 58.413 39.7962 58.2555 39.7025C57.9536 39.5286 57.7043 39.7025 57.7043 40.2244C57.7043 40.7597 57.9143 41.2012 58.2424 41.402C58.4261 41.509 58.5705 41.4823 58.6755 41.4154L58.938 41.9372C58.7543 42.0844 58.5049 42.071 58.2161 41.8971C57.6649 41.5492 57.1924 40.8132 57.1924 39.93Z" fill="#DAE5F8"/>
<path d="M59.6725 40.559L59.0557 40.1977V39.7026L60.7882 40.7196V41.2147L60.1713 40.8534V42.981L59.6594 42.6866V40.559H59.6725Z" fill="#DAE5F8"/>
<path d="M61.1426 40.9203L62.5338 41.7366V42.2317L61.6413 41.7098V42.2317L62.4026 42.6732V43.1684L61.6413 42.7268V43.3289L62.5732 43.8776V44.3727L61.1426 43.5297V40.9203Z" fill="#DAE5F8"/>
<path d="M63.0059 42.0175L63.6359 42.3922C64.3184 42.7936 64.7515 43.4493 64.7515 44.3459C64.7515 45.2424 64.3184 45.4164 63.6621 45.0283L63.0059 44.6403V42.0175ZM63.6096 44.5198C63.9902 44.7473 64.2396 44.6804 64.2396 44.0515C64.2396 43.4226 63.9902 43.088 63.6096 42.8605L63.5177 42.807V44.4663L63.6096 44.5198Z" fill="#DAE5F8"/>
<path d="M55.7746 26.8029L32.7402 13.2342V11.9496L55.7746 25.5183V26.8029Z" fill="#81A1CC"/>
<path d="M63.6761 31.4462L58.5049 28.3953V27.1107L63.6761 30.1482V31.4462Z" fill="#81A1CC"/>
<path d="M53.0578 93.9372L44.0278 88.6248C43.7259 88.4508 43.4897 88.0093 43.4766 87.648L43.4897 82.8708C43.4897 82.5095 43.7391 82.3757 44.0278 82.5497L53.0578 87.8621C53.3597 88.036 53.6091 88.4642 53.6091 88.8255V93.6027C53.6091 93.9773 53.3728 94.1112 53.0578 93.9372Z" fill="#B4CAED"/>
<path d="M51.719 92.2378L45.3796 88.5177C45.1696 88.3839 44.999 88.0762 44.999 87.8353V84.4766C44.999 84.2223 45.1696 84.1287 45.3796 84.2491L51.719 87.9825C51.9159 88.1163 52.0996 88.4241 52.0996 88.6516V92.0103C52.0996 92.2645 51.929 92.3716 51.719 92.2378Z" fill="white"/>
<path d="M61.2085 96.948L56.1816 93.9907C55.8797 93.8034 55.6172 93.4019 55.6304 93.0808V91.7694C55.6435 91.4483 55.8797 91.3412 56.1816 91.5152L61.2085 94.4725C61.5104 94.6464 61.7597 95.0612 61.7597 95.369V96.6938C61.7597 97.0149 61.5235 97.1353 61.2085 96.948Z" fill="#B4CAED"/>
<path d="M40.4316 84.6773L35.4048 81.7334C35.1029 81.5461 34.8535 81.1447 34.8535 80.8235V79.5121C34.8535 79.191 35.1029 79.0705 35.4048 79.2579L40.4316 82.2152C40.7335 82.3891 40.9829 82.8039 40.9829 83.1117V84.4365C40.9829 84.7442 40.7335 84.8647 40.4316 84.6773Z" fill="#B4CAED"/>
</g>
<defs>
<clipPath id="clip0_2720_183">
<rect width="42" height="104" fill="white" transform="translate(29)"/>
</clipPath>
</defs>
</svg>
