<svg width="145" height="45" viewBox="0 0 145 45" fill="none" xmlns="http://www.w3.org/2000/svg">
<path d="M140.174 0H4.0996C1.83492 0 0 1.82611 0 4.07992V40.3764C0 42.6302 1.83492 44.4563 4.0996 44.4563H140.174C142.438 44.4563 144.273 42.6302 144.273 40.3764V4.07992C144.273 1.82611 142.438 0 140.174 0Z" fill="#252525"/>
<path d="M31.8111 22.4757C31.7773 19.0012 34.6698 17.3097 34.8001 17.2328C33.1632 14.854 30.6233 14.5321 29.7348 14.508C27.6053 14.287 25.5386 15.7767 24.4521 15.7767C23.3463 15.7767 21.6708 14.5273 19.8697 14.5657C17.5519 14.6041 15.3837 15.9401 14.191 18.0113C11.738 22.2402 13.5681 28.4538 15.9197 31.8754C17.098 33.5477 18.4693 35.417 20.2704 35.3498C22.0281 35.2777 22.6848 34.2349 24.8143 34.2349C26.9196 34.2349 27.5377 35.3498 29.3726 35.3065C31.2607 35.2777 32.4485 33.6246 33.5833 31.933C34.945 30.0156 35.4906 28.127 35.51 28.0261C35.4713 28.0165 31.8449 26.6421 31.8111 22.4757ZM28.3441 12.259C29.2905 11.0817 29.9424 9.47661 29.7589 7.85233C28.3876 7.9148 26.6782 8.79422 25.6883 9.94756C24.8143 10.9615 24.032 12.6291 24.2348 14.1909C25.7752 14.3062 27.3542 13.4172 28.3441 12.259ZM108.472 24.5469C106.893 24.5469 105.638 25.0563 104.711 26.075C103.779 27.0938 103.315 28.4009 103.315 30.0012C103.315 31.5293 103.764 32.7932 104.667 33.7976C105.57 34.8019 106.782 35.3065 108.303 35.3065C109.877 35.3065 111.143 34.7827 112.099 33.7351C113.006 32.7163 113.46 31.414 113.46 29.8282C113.46 28.2856 113.021 27.0313 112.137 26.051C111.215 25.0514 109.989 24.5469 108.472 24.5469ZM110.433 32.3751C109.935 33.2113 109.245 33.6294 108.366 33.6294C107.468 33.6294 106.773 33.2161 106.275 32.3944C105.86 31.712 105.657 30.8998 105.657 29.9483C105.657 28.968 105.86 28.1366 106.275 27.459C106.758 26.6373 107.458 26.224 108.385 26.224C109.279 26.224 109.969 26.6373 110.452 27.459C110.867 28.1414 111.07 28.9536 111.07 29.9051C111.07 30.8566 110.858 31.6831 110.433 32.3751ZM49.7451 20.7697L45.1143 35.0759H47.4997L48.7793 30.871H53.4487L54.7911 35.0759H57.2441L52.5941 20.7697H49.7451ZM49.1898 29.1122L50.3825 25.3782C50.6964 24.1913 50.9233 23.2926 51.0682 22.6823H51.1116C51.4641 24.0951 51.7056 24.9938 51.8359 25.3782L53.048 29.1122H49.1898ZM118.704 25.0995C118.178 25.508 117.797 26.0558 117.55 26.7334H117.488L117.401 24.7583H115.397C115.45 25.7338 115.479 26.8151 115.479 28.0069L115.459 35.0711H117.763V29.6648C117.763 28.843 117.956 28.1655 118.337 27.6272C118.777 27.0217 119.405 26.7142 120.216 26.7142C120.472 26.7142 120.713 26.7382 120.94 26.7766V24.5901C120.771 24.5661 120.578 24.5517 120.365 24.5517C119.772 24.5469 119.216 24.7343 118.704 25.0995ZM131.245 29.4293C131.245 28.1414 130.94 27.0602 130.332 26.1808C129.564 25.0755 128.429 24.5276 126.937 24.5276C125.416 24.5276 124.209 25.0803 123.316 26.1808C122.461 27.214 122.036 28.5115 122.036 30.0637C122.036 31.6495 122.495 32.9134 123.412 33.8504C124.33 34.7923 125.59 35.2633 127.198 35.2633C128.536 35.2633 129.695 35.0518 130.675 34.6241L130.313 33.0335C129.472 33.3603 128.541 33.5189 127.522 33.5189C126.595 33.5189 125.841 33.2834 125.262 32.798C124.624 32.2598 124.286 31.4813 124.262 30.4625H131.172C131.216 30.1838 131.245 29.8426 131.245 29.4293ZM124.253 28.8334C124.32 28.1414 124.547 27.5455 124.933 27.0506C125.402 26.4306 126.015 26.1183 126.764 26.1183C127.589 26.1183 128.203 26.4355 128.598 27.0746C128.912 27.5696 129.062 28.1558 129.043 28.8334H124.253ZM99.4715 22.1921L97.2117 22.8745V24.7631H95.6954V26.4835H97.2117V31.6831C97.2117 32.9854 97.4676 33.9129 97.9794 34.4655C98.4913 35.0182 99.2011 35.2921 100.114 35.2921C100.853 35.2921 101.451 35.2056 101.905 35.0374L101.842 33.2978C101.572 33.3699 101.229 33.4035 100.819 33.4035C99.9206 33.4035 99.4763 32.7692 99.4763 31.4957V26.4787H102.016V24.7583H99.4715V22.1921ZM76.7861 24.5469C75.2215 24.5469 74.053 25.162 73.2901 26.3922H73.2466L73.1162 24.7583H71.093C71.1461 25.9213 71.1799 27.0506 71.1799 28.151V39.2711H73.4832V33.8408H73.5267C74.1254 34.8164 75.1057 35.3065 76.4674 35.3065C77.7325 35.3065 78.79 34.8548 79.6447 33.9514C80.6008 32.9326 81.074 31.5438 81.074 29.7897C81.074 28.2183 80.6684 26.9545 79.8523 25.9933C79.0266 25.0322 78.0029 24.5469 76.7861 24.5469ZM77.9981 32.5049C77.5152 33.1729 76.8392 33.4996 75.9748 33.4996C75.2312 33.4996 74.6324 33.2449 74.1737 32.7259C73.7102 32.2117 73.4832 31.5774 73.4832 30.8277V29.1073C73.4832 28.9247 73.517 28.6941 73.5894 28.4105C73.7295 27.8002 74.0337 27.3101 74.4924 26.9352C74.9511 26.5604 75.4678 26.373 76.0376 26.373C76.8778 26.373 77.5442 26.7142 78.0415 27.3918C78.4954 28.0453 78.7272 28.8719 78.7272 29.8762C78.7224 30.9671 78.4809 31.8417 77.9981 32.5049ZM90.7943 26.8391C89.785 26.4403 89.0849 26.075 88.7034 25.7338C88.264 25.3686 88.0419 24.8977 88.0419 24.3354C88.0419 23.826 88.235 23.3935 88.6165 23.0427C89.0704 22.6439 89.7029 22.4468 90.5142 22.4468C91.5379 22.4468 92.4553 22.6679 93.2666 23.1052L93.8412 21.2358C92.9768 20.7841 91.8855 20.5582 90.5818 20.5582C89.1187 20.5582 87.9453 20.9331 87.0616 21.6876C86.178 22.4372 85.7386 23.4031 85.7386 24.5757C85.7386 26.373 86.994 27.7426 89.5098 28.6796C90.4321 29.0208 91.0985 29.3861 91.4944 29.7849C91.8904 30.179 92.0884 30.6692 92.0884 31.2506C92.0884 31.9042 91.8469 32.4232 91.364 32.8124C90.8812 33.2017 90.2051 33.3939 89.336 33.3939C88.1288 33.3939 87.0182 33.0912 86.0041 32.4808L85.4681 34.3887C86.4049 34.9845 87.6507 35.2777 89.1959 35.2777C90.8715 35.2777 92.1753 34.8596 93.1072 34.0282C93.9619 33.2642 94.3868 32.2742 94.3868 31.0584C94.3868 30.0685 94.0971 29.2419 93.5128 28.5739C92.9382 27.9156 92.0304 27.3389 90.7943 26.8391ZM64.8639 24.5469C63.2994 24.5469 62.1357 25.162 61.3679 26.3922H61.3244L61.194 24.7583H59.1708C59.2287 25.9213 59.2577 27.0506 59.2577 28.151V39.2711H61.561V33.8408H61.5997C62.1984 34.8164 63.1787 35.3065 64.5452 35.3065C65.8103 35.3065 66.8678 34.8548 67.7225 33.9514C68.6738 32.9326 69.1518 31.5438 69.1518 29.7897C69.1518 28.2183 68.7414 26.9545 67.9253 25.9933C67.1044 25.0322 66.0856 24.5469 64.8639 24.5469ZM66.0759 32.5049C65.593 33.1729 64.917 33.4996 64.0527 33.4996C63.3139 33.4996 62.7151 33.2449 62.2515 32.7259C61.7928 32.2117 61.561 31.5774 61.561 30.8277V29.1073C61.561 28.9247 61.5948 28.6941 61.6673 28.4105C61.8073 27.8002 62.1115 27.3101 62.5751 26.9352C63.0338 26.5604 63.5505 26.373 64.1203 26.373C64.9556 26.373 65.6268 26.7142 66.1242 27.3918C66.5781 28.0453 66.805 28.8719 66.805 29.8762C66.805 30.9671 66.5636 31.8417 66.0759 32.5049ZM74.1496 12.6531C73.9371 12.8117 73.6522 12.8934 73.3045 12.8934C72.9569 12.8934 72.6671 12.8021 72.4354 12.6146C72.2036 12.4272 72.0877 12.2062 72.0877 11.9467H71.1751C71.1751 12.4609 71.3779 12.8645 71.7787 13.1673C72.1794 13.47 72.6865 13.619 73.3045 13.619C73.9371 13.619 74.4441 13.4748 74.8256 13.1913C75.2071 12.9078 75.3954 12.5185 75.3954 12.0284C75.3954 11.4133 75.0815 11 74.4586 10.7885C74.7242 10.6684 74.9318 10.5098 75.0767 10.308C75.2215 10.1061 75.294 9.88508 75.294 9.6448C75.294 9.14983 75.1201 8.76539 74.7676 8.49627C74.4151 8.22716 73.9274 8.09261 73.2997 8.09261C72.7154 8.09261 72.2277 8.24158 71.8366 8.53472C71.4455 8.82786 71.2523 9.2123 71.2523 9.67364H72.165C72.165 9.44778 72.2712 9.25075 72.4885 9.08255C72.7058 8.91436 72.9762 8.83266 73.2997 8.83266C73.6329 8.83266 73.8936 8.90475 74.0868 9.05372C74.2799 9.19789 74.3717 9.39972 74.3717 9.64961C74.3717 10.1446 74.0578 10.4041 73.4349 10.4185H72.4402V11.1922H73.3577C73.7391 11.1922 74.0192 11.2547 74.1979 11.3844C74.3765 11.5142 74.4683 11.7256 74.4683 12.0236C74.4731 12.2831 74.3669 12.4897 74.1496 12.6531ZM80.0455 9.63519V13.5229H80.9629V8.19352H80.0455L77.5731 12.086V8.19352H76.6557V13.5229H77.5731L80.0455 9.63519ZM60.209 8.19352H56.8192V13.5229H57.7415V8.94319H60.2138V8.19352H60.209ZM86.4146 8.19352H81.9383V8.93358H83.7008V13.5277H84.6183V8.93358H86.4146V8.19352ZM91.1226 13.0423C91.4848 12.7204 91.6683 12.2927 91.6683 11.7593C91.6683 11.2306 91.4896 10.8126 91.1371 10.505C90.7846 10.1974 90.3017 10.0389 89.6981 10.0341H88.3074V8.19352H87.39V13.5229H89.6595C90.2727 13.5229 90.7605 13.3643 91.1226 13.0423ZM88.3074 10.7741H89.703C90.0313 10.7789 90.2872 10.8798 90.4707 11.0673C90.6542 11.2547 90.746 11.4998 90.746 11.7929C90.746 12.1004 90.6542 12.3407 90.4659 12.5137C90.2776 12.6915 90.012 12.778 89.6692 12.778H88.3074V10.7741ZM48.7021 12.4897C48.393 12.73 47.9778 12.8501 47.4611 12.8501C46.9975 12.8501 46.6161 12.7252 46.3167 12.4753C46.0173 12.2254 45.8676 11.913 45.8676 11.5334H44.9163C44.9163 11.9659 45.0274 12.3359 45.2447 12.6483C45.462 12.9606 45.7662 13.2009 46.1573 13.3691C46.5485 13.5373 46.9831 13.6238 47.4611 13.6238C48.2675 13.6238 48.9097 13.4364 49.3926 13.0568C49.8755 12.6771 50.1169 12.1677 50.1169 11.5238C50.1169 10.6876 49.692 10.1254 48.8421 9.84183C49.2091 9.68325 49.494 9.467 49.6968 9.19789C49.8996 8.92877 50.0058 8.62122 50.0058 8.28963C50.0058 7.65049 49.7837 7.15072 49.3395 6.7903C48.8952 6.42988 48.2675 6.25208 47.4611 6.25208C47.0072 6.25208 46.5919 6.33858 46.2153 6.50677C45.8386 6.67496 45.5441 6.91044 45.3364 7.21319C45.1288 7.51594 45.0226 7.85713 45.0226 8.23677H45.9738C45.9738 7.89558 46.1187 7.60724 46.4036 7.37177C46.6885 7.1411 47.041 7.02097 47.4659 7.02097C47.9729 7.02097 48.3641 7.1363 48.6441 7.35736C48.9242 7.58322 49.0642 7.88597 49.0642 8.27041C49.0642 8.65005 48.9387 8.94319 48.6924 9.14983C48.4462 9.35647 48.0792 9.467 47.5963 9.47661H46.7078V10.2503H47.6011C48.649 10.2647 49.1705 10.6972 49.1705 11.5382C49.1656 11.9323 49.0111 12.2494 48.7021 12.4897ZM68.3889 12.1869L67.0513 8.18872H66.0518L67.9639 13.4604L67.7611 14.0035C67.6501 14.335 67.5052 14.5657 67.3314 14.6858C67.1575 14.8108 66.9161 14.8733 66.6071 14.8733L66.3608 14.854V15.5941L66.7036 15.6566L66.8775 15.671C67.6018 15.671 68.1329 15.2289 68.4661 14.3398L70.6198 8.18391H69.6395L68.3889 12.1869ZM97.4724 13.6238C97.8346 13.6238 98.1774 13.5421 98.5058 13.3787C98.8293 13.2153 99.09 12.9943 99.288 12.7204C99.486 12.4464 99.5874 12.1533 99.6067 11.8506H98.7424C98.7182 12.1485 98.583 12.3936 98.3367 12.5906C98.0905 12.7876 97.8056 12.8886 97.4821 12.8886C97.0089 12.8886 96.6467 12.7252 96.3908 12.3888C96.1348 12.0524 96.0093 11.5863 96.0093 10.9711V10.7981C96.0093 10.1686 96.1348 9.68325 96.3908 9.35166C96.6467 9.02008 97.0088 8.85189 97.4724 8.85189C97.8201 8.85189 98.1098 8.96241 98.3464 9.18347C98.583 9.40453 98.7134 9.68805 98.7424 10.0341H99.6067C99.5826 9.46219 99.3701 8.99605 98.9693 8.64044C98.5734 8.28002 98.0712 8.10222 97.4724 8.10222C96.9847 8.10222 96.5598 8.21275 96.2024 8.43861C95.8451 8.65966 95.5699 8.97683 95.3767 9.3805C95.1836 9.78417 95.0918 10.2455 95.0918 10.7645V10.9183C95.0918 11.7593 95.3091 12.4224 95.7389 12.9078C96.159 13.3787 96.7433 13.6238 97.4724 13.6238ZM61.9135 13.0039C62.2853 13.4124 62.7972 13.619 63.4491 13.619C64.0865 13.619 64.5935 13.3691 64.9653 12.8741C65.3371 12.3792 65.5254 11.7256 65.5254 10.9135V10.8318C65.5254 9.97158 65.3371 9.2988 64.9653 8.81825C64.5886 8.33769 64.0816 8.09261 63.4394 8.09261C62.7779 8.09261 62.2564 8.32327 61.8846 8.78461L61.8411 8.19352H61.0057V15.5749H61.9232V13.0039H61.9135ZM61.9135 9.60155C62.1888 9.11139 62.6089 8.8663 63.1593 8.8663C63.6084 8.8663 63.9609 9.0393 64.2168 9.39011C64.4728 9.74092 64.6031 10.2119 64.6031 10.8126C64.6031 11.4949 64.4728 12.0091 64.212 12.3551C63.9513 12.7011 63.6036 12.8741 63.1642 12.8741C62.5992 12.8741 62.1791 12.6339 61.9087 12.1437V9.60155H61.9135ZM53.5019 10.2888C52.7341 10.2888 52.1353 10.4425 51.7104 10.7501C51.2855 11.0576 51.073 11.4901 51.073 12.0428C51.073 12.4993 51.242 12.8741 51.58 13.1721C51.918 13.47 52.3526 13.619 52.8789 13.619C53.4681 13.619 53.9799 13.398 54.4048 12.9606C54.4386 13.2298 54.4821 13.4172 54.5352 13.5229H55.4961V13.446C55.3706 13.1577 55.3078 12.7684 55.3078 12.2783V9.82261C55.2933 9.28439 55.1147 8.8615 54.7622 8.55394C54.4145 8.24638 53.9268 8.09261 53.3135 8.09261C52.9224 8.09261 52.5651 8.16469 52.2416 8.30886C51.918 8.45302 51.6573 8.65005 51.469 8.89994C51.2806 9.14983 51.1841 9.40453 51.1841 9.66883H52.1063C52.1063 9.43336 52.2174 9.23633 52.4395 9.07294C52.6617 8.90955 52.9369 8.82786 53.2604 8.82786C53.6322 8.82786 53.9171 8.92397 54.1054 9.11139C54.2986 9.2988 54.3903 9.5535 54.3903 9.87067V10.2888H53.5019ZM54.3952 12.0284C54.2793 12.2638 54.091 12.4561 53.835 12.605C53.5791 12.754 53.3039 12.8261 53.019 12.8261C52.7196 12.8261 52.4733 12.7444 52.2802 12.5858C52.087 12.4272 51.9953 12.2014 51.9953 11.9178C51.9953 11.2643 52.5554 10.9375 53.6805 10.9375H54.4V12.0284H54.3952Z" fill="white"/>
</svg>
