<svg width="50" height="50" viewBox="0 0 50 50" fill="none" xmlns="http://www.w3.org/2000/svg">
<circle cx="25" cy="25" r="25" fill="white"/>
<path d="M10.8105 25.8089C11.755 24.8303 12.6698 23.8823 13.5942 22.9243C15.8594 24.9939 18.1144 27.0542 20.4009 29.1437C25.1075 21.7052 31.0972 15.6497 38.2452 10.8108C38.5504 11.6391 38.8805 12.58 39.1889 13.4182C39.1187 13.487 39.0669 13.5339 39.0193 13.5849C37.94 14.7488 36.8437 15.896 35.7867 17.0815C34.0771 18.9992 32.4616 21.0014 30.9662 23.1066C29.3321 25.4068 27.8039 27.783 26.3299 30.1971C24.9034 32.5336 23.5288 34.9029 22.2185 37.3126C22.125 37.4844 22.0305 37.6558 21.9304 37.8378C18.2247 33.8293 14.5212 29.8228 10.8105 25.8089Z" fill="#528CF3"/>
</svg>
